<?xml version="1.0" encoding="UTF-8"?>
<svg id="_レイヤー_2" data-name="レイヤー 2" xmlns="http://www.w3.org/2000/svg" viewBox="0 0 104.88 33.63">
  <defs>
    <style>
      .cls-1 {
        stroke-width: .62px;
      }

      .cls-1, .cls-2, .cls-3, .cls-4, .cls-5, .cls-6 {
        fill: none;
        stroke: #231815;
        stroke-miterlimit: 10;
      }

      .cls-2 {
        stroke-width: .61px;
      }

      .cls-3 {
        stroke-width: 1.04px;
      }

      .cls-4 {
        stroke-width: .79px;
      }

      .cls-7 {
        fill: #231815;
      }

      .cls-5 {
        stroke-width: .75px;
      }

      .cls-6 {
        stroke-width: .46px;
      }
    </style>
  </defs>
  <g id="_レイヤー_2-2" data-name="レイヤー 2">
    <g>
      <path class="cls-5" d="M55,11.36c-.38.42-.87,1.1-1,2-.12.86.16,1.47.5,2.5.4,1.2.62,2.45.94,3.67.64,2.38.96,3.59,1.06,4.33.2,1.52-.15,4.16-4,8"/>
      <path class="cls-5" d="M62.34,6.85c.32.03.61.07.86.1,1.23.17,2.23.36,2.46,1.1.38,1.2-1.53,3.06-2.79,3.94-.42.29-2.01,1.37-4.05,1.43-2.1.05-4.61-.99-4.44-2.61,0-.02,0-.04,0-.06"/>
      <path class="cls-5" d="M54.44,11.61c-.15,0-.3,0-.45-.04-1.73-.4-1.78-3.68-1.78-4.04-.03-2.03.82-4.1,2.1-5.47.12-.13.78-.82,1.53-1.27"/>
      <path class="cls-5" d="M55.83.79c.57-.34,1.19-.55,1.69-.3.21.1.58.36.86,1.64.08.35.17.77.24,1.25"/>
      <path class="cls-4" d="M59.24,10.28c-.86.56-3.41,2.21-4.49,1.26-1.01-.89-.14-3.59.56-4.99,1.63-3.27,4.81-4.25,5.51-4.47.78-.24,1.68-.51,2.24-.01.81.72.31,2.57.17,3.1-.32,1.21-.93,2.06-1.34,2.62-.32.44-1.19,1.56-2.65,2.5Z"/>
      <path class="cls-6" d="M58.31,20.7c.21-.13.7-.49,1.55-2.16.35-.68.79-1.66,1.14-2.91-1.47.44-2.57,1.03-3.29,1.48-.9.56-1.48.95-1.83,1.66-.49,1.02-.14,2,0,2.34.47.07,1.5.16,2.43-.41Z"/>
      <path class="cls-2" d="M54.69,25.51c-.61-1.29-1.44-2.08-1.73-2.34-1.14-1.02-2.34-1.44-3.02-1.63-.06.51-.19,2.15.87,3.66.24.35.84,1.19,2.02,1.69,1.05.45,2,.39,2.44.33-.09-.44-.25-1.04-.57-1.71Z"/>
      <path class="cls-1" d="M54.05,16.02c-.51-.72-1.13-1.04-2.28-1.63-.71-.36-1.74-.82-3.03-1.19.51,1.55,1.16,2.7,1.65,3.45.63.96,1.03,1.56,1.77,1.92,1.14.54,2.27.11,2.65-.06,0-.54-.09-1.56-.76-2.5Z"/>
      <g>
        <path class="cls-7" d="M7.49,15.18c.49.55.82,1.2.98,1.94,0,.31-.08.49-.25.55-.22.06-.41-.06-.57-.37-.22-.62-.52-1.14-.9-1.57-.55-.62-1.2-.92-1.97-.92-.82,0-1.48.28-1.97.83-.55.62-.82,1.42-.82,2.4,0,.8.19,1.42.57,1.85.44.49,1.01.86,1.72,1.11,1.09.37,1.86.65,2.3.83.55.25,1.01.59,1.39,1.02.6.68.9,1.57.9,2.68,0,1.42-.33,2.5-.98,3.24-.71.8-1.7,1.2-2.95,1.2-1.15,0-2.05-.37-2.71-1.11-.55-.62-.96-1.51-1.23-2.68-.05-.43.03-.68.25-.74.27-.06.46.09.57.46.27,1.05.6,1.79.98,2.22.6.68,1.31,1.02,2.13,1.02.98,0,1.75-.31,2.3-.92.55-.62.82-1.51.82-2.68,0-.8-.22-1.45-.66-1.94-.38-.43-.74-.71-1.07-.83-.66-.31-1.45-.62-2.38-.92-.82-.31-1.42-.68-1.8-1.11-.66-.74-.98-1.63-.98-2.68,0-1.17.33-2.13.98-2.87.71-.8,1.59-1.2,2.62-1.2,1.09,0,2,.4,2.71,1.2Z"/>
        <path class="cls-7" d="M9.85,19.62c0-.37.14-.55.41-.55s.41.19.41.55v6.29c0,1.23.22,2.1.66,2.59.38.43.79.65,1.23.65.66,0,1.28-.34,1.89-1.02.6-.68,1.01-1.45,1.23-2.31v-6.2c0-.37.14-.55.41-.55s.41.19.41.55v9.8c0,.37-.14.55-.41.55s-.41-.18-.41-.55v-1.76c-.16.37-.38.71-.66,1.02-.77.86-1.59,1.29-2.46,1.29-.77,0-1.37-.25-1.8-.74-.6-.68-.9-1.76-.9-3.24v-6.38Z"/>
        <path class="cls-7" d="M17.95,19.62c0-.37.11-.55.33-.55.33,0,.49.19.49.55v1.76c.22-.49.52-.96.9-1.39.55-.62,1.18-.92,1.89-.92s1.31.28,1.8.83c.6.68.9,1.79.9,3.33v6.19c0,.37-.11.55-.33.55-.33,0-.49-.18-.49-.55v-6.29c0-1.29-.22-2.19-.66-2.68-.33-.37-.77-.56-1.31-.56s-1.07.28-1.56.83c-.77.86-1.15,1.73-1.15,2.59v6.1c0,.37-.16.55-.49.55-.22,0-.33-.18-.33-.55v-9.8Z"/>
        <path class="cls-7" d="M31.23,29.51v-1.48c-.66,1.29-1.5,1.94-2.54,1.94-.77,0-1.45-.34-2.05-1.02-.93-1.05-1.39-2.62-1.39-4.72,0-1.85.44-3.27,1.31-4.25.55-.62,1.23-.92,2.05-.92,1.09,0,1.97.77,2.62,2.31v-6.84c0-.37.14-.55.41-.55s.41.18.41.55v14.98c0,.37-.14.55-.41.55s-.41-.18-.41-.55ZM31.23,26.65v-3.7c-.66-2.03-1.5-3.05-2.54-3.05-.55,0-1.04.25-1.48.74-.77.86-1.15,2.07-1.15,3.61,0,1.85.38,3.21,1.15,4.07.49.55,1.01.83,1.56.83,1.04,0,1.86-.83,2.46-2.5Z"/>
        <path class="cls-7" d="M38.68,19.99c.16.18.33.43.49.74v-1.11c0-.37.14-.55.41-.55s.41.19.41.55v9.89c0,.37-.14.55-.41.55s-.41-.18-.41-.55v-1.2c-.05.18-.19.4-.41.65-.66.68-1.39,1.02-2.21,1.02-.71,0-1.34-.31-1.89-.92-.82-.92-1.23-2.46-1.23-4.62,0-1.85.44-3.27,1.31-4.25.66-.74,1.34-1.11,2.05-1.11.77,0,1.39.31,1.89.92ZM35.32,20.73c-.71.8-1.07,2.03-1.07,3.7,0,1.91.36,3.27,1.07,4.07.38.43.82.65,1.31.65.6,0,1.15-.28,1.64-.83.55-.62.85-1.2.9-1.76v-4.25c-.22-.62-.52-1.14-.9-1.57-.49-.56-.96-.83-1.39-.83-.55,0-1.07.28-1.56.83Z"/>
        <path class="cls-7" d="M41.86,19.53l2.79,8.23,2.54-8.23c.11-.31.3-.43.57-.37.22.06.3.28.25.65l-4.18,13.5c-.11.31-.3.4-.57.28-.22-.12-.27-.37-.16-.74l1.15-3.7-3.2-9.34c-.05-.31,0-.52.16-.65.27-.18.49-.06.66.37Z"/>
      </g>
      <g>
        <path class="cls-7" d="M69.7,15.8c.22,0,.33.14.33.42,0,.23-.11.34-.33.34h-5.5c-.16,0-.25.11-.25.34v5.49h5.09c.22,0,.33.14.33.42,0,.23-.11.34-.33.34h-5.09v6.75c0,.34-.14.51-.41.51s-.41-.17-.41-.51v-13.17c0-.62.22-.93.66-.93h5.91Z"/>
        <path class="cls-7" d="M71.16,16.16c0-.34.14-.51.41-.51s.41.17.41.51v13.59c0,.34-.14.51-.41.51s-.41-.17-.41-.51v-13.59Z"/>
        <path class="cls-7" d="M79.27,19.44c.87,1.08,1.31,2.72,1.31,4.94s-.44,3.86-1.31,4.94c-.6.74-1.34,1.11-2.21,1.11s-1.61-.37-2.21-1.11c-.88-1.07-1.31-2.72-1.31-4.94s.44-3.86,1.31-4.94c.6-.74,1.34-1.11,2.21-1.11s1.61.37,2.21,1.11ZM75.49,20.05c-.77.94-1.15,2.38-1.15,4.33s.38,3.39,1.15,4.33c.44.54.96.81,1.56.81s1.12-.27,1.56-.81c.76-.94,1.15-2.38,1.15-4.33s-.38-3.39-1.15-4.33c-.44-.54-.96-.81-1.56-.81s-1.12.27-1.56.81Z"/>
        <path class="cls-7" d="M81.62,19.04l1.64,9.67,1.97-9.37c.11-.6.35-.91.74-.91s.63.3.74.91l1.97,9.37,1.64-9.67c.05-.47.22-.67.49-.6.27.07.38.3.33.71l-1.89,10.48c-.11.47-.3.71-.57.71s-.47-.24-.57-.71l-2.13-9.98-2.21,9.98c-.11.47-.27.71-.49.71-.27,0-.47-.24-.57-.71l-1.89-10.48c-.06-.33.03-.57.25-.71.33-.07.52.13.57.6Z"/>
        <path class="cls-7" d="M97.1,19.54c.77.94,1.15,2.25,1.15,3.93,0,.67-.27,1.01-.82,1.01h-4.84c0,2.02.33,3.39.98,4.13.44.54.93.81,1.48.81s1.04-.27,1.48-.81c.33-.4.6-1.04.82-1.92.11-.27.27-.37.49-.3.27.14.36.4.25.81-.22.94-.55,1.65-.98,2.12-.55.67-1.23,1.01-2.05,1.01-.77,0-1.45-.37-2.05-1.11-.82-1.01-1.23-2.69-1.23-5.04,0-2.15.41-3.73,1.23-4.74.55-.67,1.23-1.01,2.05-1.01.77,0,1.45.37,2.05,1.11ZM92.59,23.57h4.59c.16,0,.25-.13.25-.4,0-1.28-.3-2.28-.9-3.02-.44-.54-.9-.81-1.39-.81-.6,0-1.12.27-1.56.81-.6.74-.93,1.88-.98,3.43Z"/>
        <path class="cls-7" d="M99.21,19.04c0-.4.14-.6.41-.6s.41.2.41.6v1.51c.27-.54.52-.94.74-1.21.49-.6,1.01-.91,1.56-.91.6,0,1.09.24,1.48.71.27.34.33.64.16.91-.16.27-.41.24-.74-.1-.33-.33-.66-.5-.98-.5-.38,0-.77.24-1.15.71-.6.74-.96,1.51-1.07,2.32v7.26c0,.4-.14.6-.41.6s-.41-.2-.41-.6v-10.68Z"/>
      </g>
      <line class="cls-3" y1="31.52" x2="104.88" y2="31.52"/>
    </g>
  </g>
</svg>