<?xml version="1.0" encoding="UTF-8"?>
<svg id="_レイヤー_2" data-name="レイヤー 2" xmlns="http://www.w3.org/2000/svg" viewBox="0 0 312.3 223.24">
  <defs>
    <style>
      .cls-1 {
        fill: #f8b62d;
      }

      .cls-2 {
        fill: #fff;
      }

      .cls-3 {
        fill: #beda7c;
      }

      .cls-4 {
        fill: #2ea7e0;
      }

      .cls-5 {
        fill: #e60012;
      }

      .cls-6 {
        fill: #00a29a;
      }

      .cls-7 {
        fill: #231815;
      }

      .cls-8 {
        fill: #ffe200;
      }

      .cls-9 {
        fill: #b5b5b6;
      }

      .cls-10 {
        fill: #dcdddd;
      }
    </style>
  </defs>
  <g id="_レイヤー_1-2" data-name="レイヤー 1">
    <rect class="cls-2" width="312.3" height="223.24"/>
    <g>
      <polygon class="cls-5" points="226.48 84.18 228.68 90.94 235.78 90.94 230.04 95.12 232.23 101.87 226.48 97.7 220.74 101.87 222.93 95.12 217.19 90.94 224.29 90.94 226.48 84.18"/>
      <path class="cls-9" d="M143.15,196.66c-2.21,0-4-2.15-4-4.8V31.4c0-2.65,1.79-4.8,4-4.8s4,2.15,4,4.8v160.45c0,2.65-1.79,4.8-4,4.8Z"/>
      <path class="cls-9" d="M292.88,139.94H19.42c-3.31,0-6-2.69-6-6s2.69-6,6-6h273.46c3.31,0,6,2.69,6,6s-2.69,6-6,6Z"/>
      <path class="cls-9" d="M168.15,108.94c-1.66,0-3-1.34-3-3v-33c0-1.66,1.34-3,3-3s3,1.34,3,3v33c0,1.66-1.34,3-3,3Z"/>
      <path class="cls-9" d="M185.15,196.66c-2.21,0-4-2.15-4-4.8V31.4c0-2.65,1.79-4.8,4-4.8s4,2.15,4,4.8v160.45c0,2.65-1.79,4.8-4,4.8Z"/>
      <path class="cls-9" d="M107.64,196.63c-3.31,0-6-3.09-6-6.91V33.49c0-3.81,2.69-6.91,6-6.91s6,3.09,6,6.91v156.24c0,3.81-2.69,6.91-6,6.91Z"/>
      <path class="cls-9" d="M213.15,196.66c-2.21,0-4-2.15-4-4.8V31.4c0-2.65,1.79-4.8,4-4.8s4,2.15,4,4.8v160.45c0,2.65-1.79,4.8-4,4.8Z"/>
      <g>
        <path class="cls-7" d="M295.88,61.44H16.42c-1.66,0-3-1.34-3-3s1.34-3,3-3h279.46c1.66,0,3,1.34,3,3s-1.34,3-3,3Z"/>
        <g>
          <rect class="cls-2" x="16.42" y="55.94" width="3" height="5"/>
          <path class="cls-2" d="M286.8,60.94h-6.08v-5h6.08v5ZM274.65,60.94h-6.08v-5h6.08v5ZM262.5,60.94h-6.08v-5h6.08v5ZM250.34,60.94h-6.08v-5h6.08v5ZM238.19,60.94h-6.08v-5h6.08v5ZM226.03,60.94h-6.08v-5h6.08v5ZM213.88,60.94h-6.08v-5h6.08v5ZM201.73,60.94h-6.08v-5h6.08v5ZM189.57,60.94h-6.08v-5h6.08v5ZM177.42,60.94h-6.08v-5h6.08v5ZM165.26,60.94h-6.08v-5h6.08v5ZM153.11,60.94h-6.08v-5h6.08v5ZM140.96,60.94h-6.08v-5h6.08v5ZM128.8,60.94h-6.08v-5h6.08v5ZM116.65,60.94h-6.08v-5h6.08v5ZM104.49,60.94h-6.08v-5h6.08v5ZM92.34,60.94h-6.08v-5h6.08v5ZM80.19,60.94h-6.08v-5h6.08v5ZM68.03,60.94h-6.08v-5h6.08v5ZM55.88,60.94h-6.08v-5h6.08v5ZM43.72,60.94h-6.08v-5h6.08v5ZM31.57,60.94h-6.08v-5h6.08v5Z"/>
          <rect class="cls-2" x="292.88" y="55.94" width="3" height="5"/>
        </g>
      </g>
      <path class="cls-9" d="M292.88,109.65H19.42c-2.05,0-3.71-1.66-3.71-3.71s1.66-3.71,3.71-3.71h273.46c2.05,0,3.71,1.66,3.71,3.71s-1.66,3.71-3.71,3.71Z"/>
      <g>
        <rect class="cls-7" x="87.9" y="55.74" width="1" height="137.01" transform="translate(-45.21 50.77) rotate(-25.76)"/>
        <path class="cls-7" d="M115.72,185.45l-.22-.45,3.6-1.74.22.45-3.6,1.74ZM113.76,181.4l-.22-.45,3.6-1.74.22.45-3.6,1.74ZM111.8,177.35l-.22-.45,3.6-1.74.22.45-3.6,1.74ZM109.85,173.29l-.22-.45,3.6-1.74.22.45-3.6,1.74ZM107.89,169.24l-.22-.45,3.6-1.74.22.45-3.6,1.74ZM105.94,165.19l-.22-.45,3.6-1.74.22.45-3.6,1.74ZM103.98,161.14l-.22-.45,3.6-1.74.22.45-3.6,1.74ZM102.03,157.08l-.22-.45,3.6-1.74.22.45-3.6,1.74ZM100.07,153.03l-.22-.45,3.6-1.74.22.45-3.6,1.74ZM98.11,148.98l-.22-.45,3.6-1.74.22.45-3.6,1.74ZM96.16,144.92l-.22-.45,3.6-1.74.22.45-3.6,1.74ZM94.2,140.87l-.22-.45,3.6-1.74.22.45-3.6,1.74ZM92.25,136.82l-.22-.45,3.6-1.74.22.45-3.6,1.74ZM90.29,132.77l-.22-.45,3.6-1.74.22.45-3.6,1.74ZM88.33,128.71l-.22-.45,3.6-1.74.22.45-3.6,1.74ZM86.38,124.66l-.22-.45,3.6-1.74.22.45-3.6,1.74ZM84.42,120.61l-.22-.45,3.6-1.74.22.45-3.6,1.74ZM82.47,116.56l-.22-.45,3.6-1.74.22.45-3.6,1.74ZM80.51,112.5l-.22-.45,3.6-1.74.22.45-3.6,1.74ZM78.55,108.45l-.22-.45,3.6-1.74.22.45-3.6,1.74ZM76.6,104.4l-.22-.45,3.6-1.74.22.45-3.6,1.74ZM74.64,100.34l-.22-.45,3.6-1.74.22.45-3.6,1.74ZM72.69,96.29l-.22-.45,3.6-1.74.22.45-3.6,1.74ZM70.73,92.24l-.22-.45,3.6-1.74.22.45-3.6,1.74ZM68.78,88.19l-.22-.45,3.6-1.74.22.45-3.6,1.74ZM66.82,84.13l-.22-.45,3.6-1.74.22.45-3.6,1.74ZM64.86,80.08l-.22-.45,3.6-1.74.22.45-3.6,1.74ZM62.91,76.03l-.22-.45,3.6-1.74.22.45-3.6,1.74ZM60.95,71.98l-.22-.45,3.6-1.74.22.45-3.6,1.74ZM59,67.92l-.22-.45,3.6-1.74.22.45-3.6,1.74ZM57.04,63.87l-.22-.45,3.6-1.74.22.45-3.6,1.74Z"/>
      </g>
      <ellipse class="cls-1" cx="153.72" cy="116.5" rx="6.29" ry="6.44"/>
      <ellipse class="cls-1" cx="121.44" cy="94.38" rx="6.29" ry="6.44"/>
      <g>
        <rect class="cls-10" x="96.15" y="130.44" width="19" height="7" rx="3.18" ry="3.18"/>
        <circle class="cls-6" cx="99.79" cy="133.94" r="2.64"/>
        <circle class="cls-8" cx="105.65" cy="133.94" r="2.64"/>
        <circle class="cls-5" cx="111.51" cy="133.94" r="2.64"/>
      </g>
      <g>
        <rect class="cls-10" x="203.15" y="130.44" width="19" height="7" rx="3.18" ry="3.18"/>
        <circle class="cls-6" cx="206.79" cy="133.94" r="2.64"/>
        <circle class="cls-8" cx="212.65" cy="133.94" r="2.64"/>
        <circle class="cls-5" cx="218.51" cy="133.94" r="2.64"/>
      </g>
      <g>
        <rect class="cls-10" x="175.15" y="130.44" width="19" height="7" rx="3.18" ry="3.18"/>
        <circle class="cls-6" cx="178.79" cy="133.94" r="2.64"/>
        <circle class="cls-8" cx="184.65" cy="133.94" r="2.64"/>
        <circle class="cls-5" cx="190.51" cy="133.94" r="2.64"/>
      </g>
      <g>
        <polygon class="cls-4" points="265.9 123.79 255.39 123.79 250.14 132.89 255.39 141.99 265.9 141.99 271.15 132.89 265.9 123.79"/>
        <path class="cls-2" d="M265.44,141.2h-9.59l-4.79-8.3,4.79-8.3h9.59l4.79,8.3-4.79,8.3ZM256.27,140.45h8.73l4.37-7.56-4.37-7.56h-8.73l-4.37,7.56,4.37,7.56Z"/>
        <path class="cls-2" d="M257.1,126.96h7.59v.83l-5.41,10.96h-1.47l5.41-10.68v-.03h-6.12v-1.09Z"/>
      </g>
      <g>
        <path class="cls-7" d="M105.76,115.1v3.37h1.25v-2.86h.5v6.16h-.5v-2.74h-1.25v3.29h-.5v-3.29h-1.2l.05-.71c.06,0,.1.06.11.16h1.04v-3.37h.5ZM111.51,121.21h-3.13v-5.01h3.13v.55h-.35v3.93h.35v.53ZM108.88,116.75v3.93h1.79v-3.93h-1.79Z"/>
        <path class="cls-7" d="M109.05,107.01h.5v1.94h1.94v.54h-1.94v1.92h-.5v-1.92h-1.18v1.55h-.5v-1.55h-1.14v1.74h-.49v-2.84c-.05.11-.17.35-.17.36-.41-.26-1.07-.56-1.53-.73l.26-.62s.07.08.07.17c.4.19.98.49,1.37.74v-1.14h.49v1.78h1.14v-1.59h.5v1.59h1.18v-1.94ZM105.56,111.66l.21-.36s.07.06.08.1c.66.26,1.32.65,1.91,1.09.24-.34.72-.98.86-1.16l.44.31c-.2.18-.56.6-.84.94h3.28v.53h-3.01c.38.35.7.72.97,1.08-.14.06-.38.2-.48.29-.62-.92-1.74-1.9-2.89-2.43v2.29h-.5v-1.22h-1.53l.04-.68c.06,0,.1.05.11.15h1.38v-.83l-.03-.09ZM104.1,110.38c.44-.27,1.03-.54,1.42-.64l.19.48c-.39.1-.99.35-1.44.62l-.17-.46Z"/>
        <path class="cls-7" d="M106.69,102.48v-3.38h.51v7.26h-.51v-3.33h-1.12v2.63h-.51v-2.63h-1.01l.05-.71c.06,0,.1.06.11.16h.85v-2.8h.51v2.8h1.12ZM107.31,100.83c.06,0,.1.05.11.16h.89v-1.76h.52v1.76h1.98c.68,0,.68.35.68,1.82-.15.02-.38.11-.53.19,0-.29,0-.57,0-.79,0-.66,0-.67-.18-.67h-1.97v4.65h-.52v-4.65h-1.04l.04-.71ZM110.76,103.86c-.42.22-1.02.76-1.43,1.25l-.3-.46c.41-.5.98-1.06,1.4-1.29l.33.5Z"/>
        <path class="cls-7" d="M106.97,91.15v3.13c1.91-.52,3.38-1.55,4.01-3.25.12.13.34.31.5.4-.69,1.67-2.1,2.69-4.03,3.28,1.58.37,3.15,1.24,4.04,3.3-.14.08-.34.25-.46.38-.86-2.11-2.46-2.9-4.07-3.21v3.09h-.55v-3.17c-.83-.1-1.65-.1-2.34-.1l.04-.75c.07,0,.11.07.14.18.63,0,1.38.02,2.17.11v-3.38h.55Z"/>
        <path class="cls-7" d="M104.25,89.91c.37-.52.92-1.12,1.33-1.38l.37.4c-.41.26-.98.84-1.37,1.36l-.33-.38ZM106.09,85.42c-.25.5-.52,1.12-.71,1.64l-.31-.35c.13-.35.29-.76.46-1.15-.19-.42-.44-.87-.69-1.21v3.5h-.44v-4.05l-.02-.09.26-.41s.06.08.06.13c.35.41.75,1.02,1.05,1.64.11-.25.23-.47.34-.66v-1.03h3.64c.53,0,.58.17.58,1.36-.14.02-.33.09-.46.15,0-.23.02-.46.02-.62,0-.34,0-.38-.14-.38h-.82v1.5h1.35v.49h-1.35v1.45h1.38v.51h-4.21v-2.41ZM107.29,83.88h-.76v1.5h.76v-1.5ZM106.53,85.87v1.45h.76v-1.45h-.76ZM107.26,88.7h2.63c.95-.62.95-1.75.95-3.27,0-.87-.02-1.89-.06-2.52.12.06.37.14.53.18.02.54.03,1.41.03,2.21,0,1.75,0,2.85-1,3.64.37.42.72.86.99,1.22.07,0,.1.02.13.07l-.58.3c-.26-.39-.61-.88-.96-1.31h-2.16v1.21h-.51v-1.73ZM108.49,85.39v-1.5h-.79v1.5h.79ZM108.49,87.32v-1.45h-.79v1.45h.79Z"/>
        <path class="cls-7" d="M104.43,76.47c.1,0,.14.07.18.21.7-.06,1.85-.14,2.77-.14,1.54,0,2.93.57,3.93,2.97-.13.09-.34.28-.46.4-.83-2.18-2.15-2.77-3.46-2.77-.98,0-2.14.1-3,.18l.04-.86ZM108.78,80.76c-.43.15-1.06.22-1.5.23-.75,0-1.62-.08-2.64-.27l.14-.8c.1.03.13.13.14.23.66.16,1.68.27,2.33.27.18,0,.32,0,.43-.02-.39-.16-.94-.46-1.24-.62.1-.07.27-.23.35-.31,1.06.59,1.37.77,1.7.77.06,0,.13,0,.2-.02l.1.55Z"/>
      </g>
      <g>
        <path class="cls-7" d="M185.5,173.53c-.19.16-.41.37-.64.62.06,2.07.12,4.29.15,5.64.06.02.1.06.11.13l-.66.2c0-.37,0-.8,0-1.28-.58-.39-1.37-.82-1.95-1.07l.19-.69c.06.03.09.1.09.18.48.25,1.14.63,1.66.99-.02-1.09-.03-2.35-.06-3.6-.37.42-.74.89-1.04,1.32l-.29-.42c.61-.88,1.5-1.95,2.09-2.48l.34.46ZM185.19,174.82c.06,0,.1.06.11.16h1.1v-1.88h.52v1.88h3.07v.55h-3.07v2.36c1.07.09,2.21.49,3.08,2.07-.12.08-.3.26-.39.39-.77-1.45-1.77-1.83-2.69-1.93v1.93h-.52v-1.95h-1.18l.04-.7c.06,0,.1.05.11.16h1.02v-2.33h-1.26l.05-.71Z"/>
        <path class="cls-7" d="M186.27,165.39v2.94c1.65-.53,2.79-1.58,3.22-3.35.12.12.35.28.5.37-.48,1.69-1.54,2.73-3.14,3.33,1.2.32,2.36,1.19,3.14,3.42-.14.05-.36.21-.46.33-.83-2.37-2.05-3.09-3.26-3.29v2.9h-.55v-2.96c-.17-.02-.34-.02-.5-.02h-1.48v3.22h-.55v-7.12h.55v3.33h1.48c.16,0,.33,0,.5.02v-3.13h.55Z"/>
        <path class="cls-7" d="M182.73,163.91c.37-.52.92-1.12,1.33-1.38l.37.4c-.41.26-.98.84-1.37,1.36l-.33-.38ZM184.58,159.42c-.25.5-.52,1.12-.71,1.64l-.31-.35c.13-.35.29-.76.46-1.15-.19-.42-.44-.87-.69-1.21v3.5h-.44v-4.05l-.02-.09.26-.41s.06.08.06.13c.35.41.75,1.02,1.05,1.64.11-.25.23-.47.34-.66v-1.03h3.64c.53,0,.58.17.58,1.36-.14.02-.33.09-.46.15,0-.23.02-.46.02-.62,0-.34,0-.38-.14-.38h-.82v1.5h1.35v.49h-1.35v1.45h1.38v.51h-4.21v-2.41ZM185.77,157.88h-.76v1.5h.76v-1.5ZM185.01,159.87v1.45h.76v-1.45h-.76ZM185.75,162.7h2.63c.95-.62.95-1.75.95-3.27,0-.87-.02-1.89-.06-2.52.12.06.37.14.53.18.02.54.03,1.41.03,2.21,0,1.75,0,2.85-1,3.64.37.42.72.86.99,1.22.07,0,.1.02.13.07l-.58.3c-.26-.39-.61-.88-.96-1.31h-2.16v1.21h-.51v-1.73ZM186.98,159.39v-1.5h-.79v1.5h.79ZM186.98,161.32v-1.45h-.79v1.45h.79Z"/>
        <path class="cls-7" d="M182.92,150.47c.1,0,.14.07.18.21.7-.06,1.86-.14,2.77-.14,1.54,0,2.93.57,3.93,2.97-.13.09-.34.28-.46.4-.83-2.18-2.15-2.77-3.46-2.77-.98,0-2.14.1-3,.18l.04-.86ZM187.27,154.76c-.43.15-1.06.22-1.5.23-.75,0-1.62-.08-2.64-.27l.14-.8c.1.03.13.13.14.23.66.16,1.68.27,2.33.27.18,0,.32,0,.43-.02-.39-.16-.94-.46-1.24-.62.1-.07.27-.23.35-.31,1.06.59,1.37.77,1.7.77.06,0,.13,0,.2-.02l.1.55Z"/>
      </g>
      <g>
        <path class="cls-7" d="M262.33,83.78l-.31-.31c1.69-1.68,2.46-3.2,2.28-4.51-.06-.42-.25-1.16-.61-2.51-.07-.27-.13-.54-.2-.81-.1-.44-.21-.9-.35-1.33l-.08-.23c-.17-.49-.29-.85-.22-1.33.06-.46.28-.89.64-1.29l.33.3c-.3.33-.48.69-.53,1.06-.05.38.05.68.2,1.13l.08.24c.15.45.26.92.36,1.37.06.27.12.53.19.8.38,1.41.57,2.12.63,2.57.19,1.45-.62,3.09-2.41,4.88Z"/>
        <path class="cls-7" d="M265.79,73.03c-.95,0-1.93-.35-2.4-.86-.25-.27-.37-.59-.33-.91h.22s.22.02.22.02c-.02.22.05.41.21.59.4.44,1.33.74,2.16.72.74-.02,1.54-.3,2.25-.8.87-.61,1.71-1.57,1.55-2.06-.1-.31-.63-.41-1.27-.49-.15-.02-.31-.04-.49-.06l.04-.44c.19.02.35.04.5.06.68.09,1.44.2,1.63.8.28.88-1,2.06-1.72,2.56-.78.54-1.67.85-2.49.88-.03,0-.06,0-.1,0Z"/>
        <path class="cls-7" d="M263.25,71.97c-.09,0-.17,0-.25-.03-1.07-.24-1.21-1.88-1.22-2.58-.02-1.2.48-2.49,1.29-3.36.11-.12.5-.51.95-.79l.23.38c-.41.25-.78.63-.85.71-.74.79-1.19,1.96-1.17,3.05,0,.33.07,1.98.88,2.16.06.02.13.02.2.02l.03.44s-.05,0-.07,0Z"/>
        <path class="cls-7" d="M265.55,66.95c-.04-.26-.09-.49-.13-.68-.11-.5-.24-.77-.4-.85-.23-.11-.55.03-.78.17l-.23-.38c.47-.29.88-.35,1.2-.18.2.1.45.32.62,1.11.05.24.1.48.14.74l-.43.07Z"/>
        <path class="cls-7" d="M264,72.11c-.25,0-.48-.06-.66-.23-.73-.64-.14-2.38.28-3.21.65-1.29,1.84-2.27,3.37-2.74.47-.15,1.11-.34,1.54.04.58.52.27,1.67.17,2.05-.2.76-.59,1.3-.82,1.61-.43.59-.99,1.12-1.62,1.52h0c-.45.29-1.46.94-2.25.94ZM267.88,66.22c-.21,0-.47.07-.76.16-1.43.44-2.5,1.31-3.09,2.5-.5,1-.79,2.29-.38,2.65.23.2.82.23,2.35-.76h0c.73-.47,1.21-1.02,1.49-1.41.21-.29.57-.78.75-1.46.29-1.09.11-1.46-.03-1.58-.08-.08-.2-.11-.33-.11Z"/>
        <g>
          <path class="cls-2" d="M265.63,77.17c.12-.08.41-.29.9-1.29.2-.41.45-1,.64-1.75-.87.25-1.51.6-1.94.86-.53.33-.87.56-1.06.99-.28.61-.06,1.21.03,1.42.28.05.89.12,1.43-.22Z"/>
          <path class="cls-7" d="M264.65,77.58c-.17,0-.34-.02-.48-.04h-.07s-.03-.08-.03-.08c-.13-.31-.31-.91-.03-1.53.21-.46.56-.69,1.12-1.04.6-.38,1.26-.67,1.97-.88l.23-.07-.06.23c-.16.62-.38,1.22-.65,1.78-.53,1.09-.84,1.28-.95,1.35h0c-.35.22-.72.28-1.06.28ZM264.29,77.27c.35.05.84.05,1.26-.22h0c.23-.15.52-.56.84-1.24.23-.47.42-.97.57-1.49-.59.19-1.15.45-1.66.78-.53.33-.84.54-1.01.93-.22.48-.11.96,0,1.24Z"/>
        </g>
        <g>
          <path class="cls-2" d="M263.45,79.9c-.36-.76-.84-1.22-1.02-1.37-.67-.6-1.38-.85-1.77-.95-.04.3-.11,1.26.51,2.15.14.2.49.7,1.18.99.61.26,1.17.23,1.43.2-.05-.26-.15-.61-.33-1Z"/>
          <path class="cls-7" d="M263.43,81.11c-.33,0-.73-.05-1.14-.23-.75-.32-1.13-.87-1.26-1.05-.6-.86-.6-1.79-.54-2.27l.02-.21.2.05c.69.19,1.33.53,1.84.99.25.22.71.7,1.06,1.43h0c.16.33.27.68.35,1.04l.04.19-.19.02c-.11.01-.24.02-.38.02ZM260.83,77.81c-.02.46.04,1.16.5,1.81.12.18.45.65,1.11.93.43.18.83.22,1.14.2-.07-.26-.16-.52-.27-.77h0c-.32-.67-.75-1.11-.97-1.32-.51-.46-1.07-.72-1.49-.85Z"/>
        </g>
        <g>
          <path class="cls-2" d="M263.08,74.34c-.3-.42-.66-.61-1.34-.95-.42-.21-1.02-.48-1.78-.7.3.91.68,1.58.97,2.03.37.57.6.92,1.04,1.12.67.32,1.33.07,1.56-.03,0-.31-.05-.92-.45-1.46Z"/>
          <path class="cls-7" d="M262.68,76.17c-.25,0-.51-.05-.78-.17-.49-.23-.75-.63-1.11-1.19-.41-.63-.74-1.33-.99-2.07l-.11-.32.33.09c.63.18,1.24.42,1.81.71.67.34,1.07.54,1.4,1.01.31.43.48.97.48,1.57v.12s-.11.05-.11.05c-.21.09-.54.2-.93.2ZM260.26,72.96c.22.59.5,1.14.83,1.65.37.57.58.88.96,1.06.49.23.99.12,1.29.01-.02-.35-.11-.82-.41-1.24h0c-.27-.38-.58-.55-1.27-.9-.45-.23-.92-.43-1.41-.58Z"/>
        </g>
        <g>
          <path class="cls-7" d="M235.77,73.85c.29.33.48.71.58,1.14,0,.18-.05.29-.14.33-.13.04-.24-.04-.34-.22-.13-.36-.3-.67-.53-.92-.32-.36-.71-.54-1.15-.54-.48,0-.87.16-1.15.49-.32.36-.48.83-.48,1.41,0,.47.11.83.34,1.08.26.29.59.51,1.01.65.64.22,1.09.38,1.35.49.32.14.59.34.82.6.35.4.53.92.53,1.57,0,.83-.19,1.46-.58,1.9-.42.47-.99.71-1.73.71-.67,0-1.2-.22-1.59-.65-.32-.36-.56-.89-.72-1.57-.03-.25.02-.4.14-.43.16-.04.27.05.34.27.16.62.35,1.05.58,1.3.35.4.77.6,1.25.6.58,0,1.03-.18,1.35-.54.32-.36.48-.88.48-1.57,0-.47-.13-.85-.38-1.14-.23-.25-.43-.42-.63-.49-.38-.18-.85-.36-1.4-.54-.48-.18-.83-.4-1.06-.65-.38-.43-.58-.96-.58-1.57,0-.69.19-1.25.58-1.68.42-.47.93-.7,1.54-.7.64,0,1.17.24,1.59.7Z"/>
          <path class="cls-7" d="M237.15,76.45c0-.22.08-.33.24-.33s.24.11.24.33v3.69c0,.72.13,1.23.39,1.52.22.25.46.38.72.38.38,0,.75-.2,1.11-.6.35-.4.59-.85.72-1.36v-3.63c0-.22.08-.33.24-.33s.24.11.24.33v5.75c0,.22-.08.33-.24.33s-.24-.11-.24-.33v-1.03c-.1.22-.22.42-.38.6-.45.51-.93.76-1.44.76-.45,0-.8-.14-1.06-.43-.35-.4-.53-1.03-.53-1.9v-3.74Z"/>
          <path class="cls-7" d="M241.91,76.45c0-.22.06-.33.19-.33.19,0,.29.11.29.33v1.03c.13-.29.3-.56.53-.81.32-.36.69-.54,1.11-.54s.77.16,1.06.49c.35.4.53,1.05.53,1.95v3.63c0,.22-.06.33-.19.33-.19,0-.29-.11-.29-.33v-3.69c0-.76-.13-1.28-.38-1.57-.19-.22-.45-.33-.77-.33s-.63.16-.91.49c-.45.51-.67,1.01-.67,1.52v3.58c0,.22-.1.33-.29.33-.13,0-.19-.11-.19-.33v-5.75Z"/>
          <path class="cls-7" d="M249.69,82.25v-.87c-.38.76-.88,1.14-1.49,1.14-.45,0-.85-.2-1.2-.6-.54-.61-.82-1.54-.82-2.77,0-1.08.26-1.92.77-2.49.32-.36.72-.54,1.2-.54.64,0,1.15.45,1.54,1.36v-4.01c0-.22.08-.33.24-.33s.24.11.24.33v8.79c0,.22-.08.33-.24.33s-.24-.11-.24-.33ZM249.69,80.57v-2.17c-.38-1.19-.88-1.79-1.49-1.79-.32,0-.61.15-.87.43-.45.51-.67,1.21-.67,2.11,0,1.08.22,1.88.67,2.39.29.33.59.49.91.49.61,0,1.09-.49,1.44-1.46Z"/>
          <path class="cls-7" d="M254.07,76.67c.1.11.19.25.29.43v-.65c0-.22.08-.33.24-.33s.24.11.24.33v5.8c0,.22-.08.33-.24.33s-.24-.11-.24-.33v-.71c-.03.11-.11.24-.24.38-.38.4-.82.6-1.3.6-.42,0-.79-.18-1.11-.54-.48-.54-.72-1.45-.72-2.71,0-1.08.26-1.92.77-2.49.38-.43.79-.65,1.2-.65.45,0,.82.18,1.11.54ZM252.09,77.1c-.42.47-.62,1.19-.62,2.17,0,1.12.21,1.92.62,2.39.22.25.48.38.77.38.35,0,.67-.16.96-.49.32-.36.5-.71.53-1.03v-2.5c-.13-.36-.31-.67-.53-.92-.29-.33-.56-.49-.82-.49-.32,0-.62.16-.91.49Z"/>
          <path class="cls-7" d="M255.93,76.39l1.64,4.83,1.49-4.83c.06-.18.18-.25.34-.22.13.04.18.16.14.38l-2.45,7.92c-.06.18-.18.24-.34.16-.13-.07-.16-.22-.1-.43l.67-2.17-1.88-5.48c-.03-.18,0-.31.1-.38.16-.11.29-.04.38.22Z"/>
        </g>
        <g>
          <path class="cls-7" d="M272.26,74.21c.13,0,.19.08.19.25,0,.13-.06.2-.19.2h-3.22c-.1,0-.14.07-.14.2v3.22h2.98c.13,0,.19.08.19.25,0,.13-.06.2-.19.2h-2.98v3.96c0,.2-.08.3-.24.3s-.24-.1-.24-.3v-7.73c0-.36.13-.54.38-.54h3.46Z"/>
          <path class="cls-7" d="M273.11,74.42c0-.2.08-.3.24-.3s.24.1.24.3v7.97c0,.2-.08.3-.24.3s-.24-.1-.24-.3v-7.97Z"/>
          <path class="cls-7" d="M277.87,76.34c.51.63.77,1.6.77,2.9s-.26,2.27-.77,2.9c-.35.43-.79.65-1.3.65s-.95-.22-1.3-.65c-.51-.63-.77-1.6-.77-2.9s.26-2.27.77-2.9c.35-.43.79-.65,1.3-.65s.95.22,1.3.65ZM275.66,76.7c-.45.55-.67,1.4-.67,2.54s.22,1.99.67,2.54c.26.32.56.47.91.47s.66-.16.92-.47c.45-.55.67-1.4.67-2.54s-.22-1.99-.67-2.54c-.26-.31-.56-.47-.92-.47s-.66.16-.91.47Z"/>
          <path class="cls-7" d="M279.25,76.11l.96,5.67,1.15-5.5c.06-.36.21-.53.43-.53s.37.18.43.53l1.15,5.5.96-5.67c.03-.28.13-.39.29-.35s.22.18.19.41l-1.11,6.15c-.06.28-.18.41-.34.41s-.27-.14-.34-.41l-1.25-5.85-1.3,5.85c-.06.28-.16.41-.29.41-.16,0-.27-.14-.34-.41l-1.11-6.15c-.03-.2.02-.33.14-.41.19-.04.3.08.34.35Z"/>
          <path class="cls-7" d="M288.33,76.4c.45.55.67,1.32.67,2.3,0,.39-.16.59-.48.59h-2.84c0,1.18.19,1.99.58,2.42.26.32.54.47.87.47s.61-.16.87-.47c.19-.24.35-.61.48-1.12.06-.16.16-.22.29-.18.16.08.21.24.14.47-.13.55-.32.97-.58,1.24-.32.39-.72.59-1.2.59-.45,0-.85-.22-1.2-.65-.48-.59-.72-1.58-.72-2.96,0-1.26.24-2.19.72-2.78.32-.39.72-.59,1.2-.59.45,0,.85.22,1.2.65ZM285.68,78.77h2.69c.1,0,.14-.08.14-.24,0-.75-.18-1.34-.53-1.77-.26-.32-.53-.47-.82-.47-.35,0-.66.16-.91.47-.35.43-.55,1.1-.58,2.01Z"/>
          <path class="cls-7" d="M289.57,76.11c0-.24.08-.35.24-.35s.24.12.24.35v.89c.16-.32.3-.55.43-.71.29-.36.59-.53.91-.53.35,0,.64.14.87.41.16.2.19.38.1.53-.1.16-.24.14-.43-.06s-.38-.3-.58-.3c-.22,0-.45.14-.67.41-.35.43-.56.89-.62,1.36v4.25c0,.24-.08.35-.24.35s-.24-.12-.24-.35v-6.26Z"/>
        </g>
        <rect class="cls-7" x="231.38" y="83.12" width="61.52" height=".61"/>
        <rect class="cls-7" x="231.38" y="84.17" width="61.52" height="1.1"/>
      </g>
      <g>
        <path class="cls-7" d="M212.04,176.44c.66-.18,1.3-.42,1.9-.7-.57-.67-1.41-1.49-2.05-1.98l.42-.57s.06.11.05.18c.61.55,1.46,1.45,2.02,2.14,1.12-.64,2.02-1.5,2.49-2.59.11.14.33.32.49.42-.7,1.46-2.12,2.46-3.85,3.11h3.7c.73,0,.79.34.79,1.84-.16.03-.43.14-.58.22,0-.3,0-.58,0-.81,0-.67,0-.7-.22-.7h-6.63l.04-.72c.06,0,.1.05.11.16h1.32ZM212.66,177.8l.18-.38s.07.05.1.09c2.02.42,3.5,1.4,4.31,2.59-.14.1-.34.3-.43.43-.67-1.08-1.91-1.98-3.58-2.38v2.17h-.54v-2.41l-.02-.1Z"/>
        <path class="cls-7" d="M210.94,165.39h6.27c.73,0,.75.28.75,1.82-.15.02-.4.12-.56.2.02-.34.02-.67.02-.92,0-.52,0-.57-.21-.57h-3.32v2.43h-2.95v-2.97ZM210.94,169.15h2.94v2.33h4.09v.53h-7.04v-2.86ZM211.4,165.93v1.91h.77v-1.91h-.77ZM211.4,169.66v1.82h.77v-1.82h-.77ZM213.44,167.84v-1.91h-.85v1.91h.85ZM213.43,171.49v-1.82h-.84v1.82h.84Z"/>
        <path class="cls-7" d="M210.73,163.91c.37-.52.92-1.12,1.33-1.38l.37.4c-.41.26-.98.84-1.37,1.36l-.33-.38ZM212.58,159.42c-.25.5-.52,1.12-.71,1.64l-.31-.35c.13-.35.29-.76.46-1.15-.19-.42-.44-.87-.69-1.21v3.5h-.44v-4.05l-.02-.09.26-.41s.06.08.06.13c.35.41.75,1.02,1.05,1.64.11-.25.23-.47.34-.66v-1.03h3.64c.53,0,.58.17.58,1.36-.14.02-.33.09-.46.15,0-.23.02-.46.02-.62,0-.34,0-.38-.14-.38h-.82v1.5h1.35v.49h-1.35v1.45h1.38v.51h-4.21v-2.41ZM213.77,157.88h-.76v1.5h.76v-1.5ZM213.01,159.87v1.45h.76v-1.45h-.76ZM213.75,162.7h2.63c.95-.62.95-1.75.95-3.27,0-.87-.02-1.89-.06-2.52.12.06.37.14.53.18.02.54.03,1.41.03,2.21,0,1.75,0,2.85-1,3.64.37.42.72.86.99,1.22.07,0,.1.02.13.07l-.58.3c-.26-.39-.61-.88-.96-1.31h-2.16v1.21h-.51v-1.73ZM214.98,159.39v-1.5h-.79v1.5h.79ZM214.98,161.32v-1.45h-.79v1.45h.79Z"/>
        <path class="cls-7" d="M210.92,150.47c.1,0,.14.07.18.21.7-.06,1.86-.14,2.77-.14,1.54,0,2.93.57,3.93,2.97-.13.09-.34.28-.46.4-.83-2.18-2.15-2.77-3.46-2.77-.98,0-2.14.1-3,.18l.04-.86ZM215.27,154.76c-.43.15-1.06.22-1.5.23-.75,0-1.62-.08-2.64-.27l.14-.8c.1.03.13.13.14.23.66.16,1.68.27,2.33.27.18,0,.32,0,.43-.02-.39-.16-.94-.46-1.24-.62.1-.07.27-.23.35-.31,1.06.59,1.37.77,1.7.77.06,0,.13,0,.2-.02l.1.55Z"/>
      </g>
      <g>
        <path class="cls-7" d="M249.7,105.29c.74,1.04,1.98,2.05,3.11,2.54-.13.11-.3.33-.4.47-1.1-.55-2.3-1.6-3.1-2.71v3.18h-.56v-3.12c-.78,1.11-1.97,2.12-3.06,2.67-.09-.14-.26-.35-.39-.46,1.13-.5,2.36-1.51,3.09-2.57h-2.46v-.53h2.83v-1.48h-3.25v-.54h3.25v-1.4l.73.04c0,.06-.06.1-.17.11v1.25h3.32v.54h-3.32v1.48h2.89v.53h-2.49Z"/>
        <path class="cls-7" d="M260.71,103h-6.12v1.66c0,1.21-.11,2.97-.86,4.13-.1-.09-.33-.25-.46-.3.72-1.12.78-2.69.78-3.83v-2.17h2.95v-1.14l.71.05c0,.06-.06.1-.16.11v.98h3.16v.51ZM258.94,105.6c.74.92,1.54,2.15,1.86,2.95l-.53.26c-.08-.22-.2-.47-.34-.75-1.8.12-3.71.22-4.89.29-.02.06-.06.1-.12.1l-.25-.65.96-.04c.48-1.13,1.04-2.92,1.34-4.21l.72.19c-.02.06-.09.1-.19.1-.31,1.17-.84,2.77-1.31,3.9l3.47-.16c-.34-.6-.78-1.24-1.2-1.77l.48-.22Z"/>
        <path class="cls-7" d="M263.07,104.55v2.63c.62.95,1.75.95,3.27.95.87,0,1.89-.02,2.52-.06-.06.12-.14.37-.18.53-.54.02-1.41.03-2.21.03-1.75,0-2.85,0-3.64-1-.42.37-.86.72-1.22.99,0,.07-.02.1-.07.13l-.3-.58c.39-.26.88-.61,1.31-.96v-2.16h-1.21v-.51h1.73ZM261.87,101.54c.52.37,1.12.92,1.38,1.33l-.4.37c-.26-.41-.84-.98-1.36-1.37l.38-.33ZM266.36,103.39c-.5-.25-1.12-.52-1.64-.71l.35-.31c.35.13.76.29,1.15.46.42-.19.87-.44,1.22-.69h-3.5v-.44h4.05l.09-.02.41.26s-.08.06-.13.06c-.41.35-1.02.75-1.64,1.05.25.11.47.23.66.34h1.03v3.64c0,.53-.17.58-1.36.58-.02-.14-.09-.33-.15-.46.23,0,.46.02.62.02.34,0,.38,0,.38-.14v-.82h-1.5v1.35h-.49v-1.35h-1.45v1.38h-.51v-4.21h2.41ZM265.9,103.82h-1.45v.76h1.45v-.76ZM264.46,105.79h1.45v-.79h-1.45v.79ZM267.89,104.58v-.76h-1.5v.76h1.5ZM266.39,105.79h1.5v-.79h-1.5v.79Z"/>
        <path class="cls-7" d="M271.02,106.07c-.15-.43-.22-1.06-.23-1.5,0-.75.08-1.62.27-2.64l.8.14c-.03.1-.13.13-.23.14-.16.66-.27,1.68-.27,2.33,0,.18,0,.32.02.43.16-.39.46-.94.62-1.24.07.1.23.27.31.35-.59,1.06-.77,1.37-.77,1.7,0,.06,0,.13.02.2l-.55.1ZM275.3,101.72c0,.1-.07.14-.21.18.06.7.14,1.85.14,2.77,0,1.54-.57,2.93-2.97,3.93-.09-.13-.28-.34-.4-.46,2.18-.83,2.77-2.15,2.77-3.46,0-.98-.1-2.14-.18-3l.86.04Z"/>
      </g>
      <g>
        <path class="cls-7" d="M123.48,81.07s-.06.06-.11.08c-.36,1.05-1.04,2.12-1.77,2.81-.12-.11-.34-.26-.47-.34.63-.55,1.18-1.45,1.49-2.2l-2.99.58.81,4.29-.58.1-.8-4.28-2.31.44-.11-.54,2.32-.44-.39-2.07.81-.06c0,.09-.06.15-.18.19l.34,1.83,3.43-.65.07-.05.46.3Z"/>
        <path class="cls-7" d="M131.47,80.76s-.06.06-.12.08c-.74,1.14-2,2.33-3.23,3.21.62.5,1.23,1.11,1.64,1.56l-.49.42c-.84-.98-2.41-2.3-3.77-3.09l.38-.41c.57.32,1.21.74,1.78,1.18,1.08-.77,2.17-1.8,2.81-2.73h-5.87v-.54h6.29l.1-.05.47.36Z"/>
        <path class="cls-7" d="M138.66,80.84s-.05.06-.1.09c-.29.97-.67,1.87-1.16,2.64.34.2.77.45,1.06.66l-.34.52c-.29-.22-.73-.49-1.06-.69-.74,1.02-1.65,1.83-2.87,2.4-.08-.14-.29-.33-.43-.42,1.17-.53,2.08-1.3,2.81-2.26-.59-.33-1.21-.62-1.79-.84l.31-.44c.58.22,1.21.5,1.82.82.41-.62.74-1.39.96-2.12h-2.64c-.51.86-1.14,1.65-1.8,2.18-.1-.1-.32-.27-.45-.36,1.04-.8,1.96-2.2,2.44-3.57l.74.22c-.03.09-.13.11-.22.1-.11.29-.26.6-.41.89h2.59l.07-.02.46.22ZM137.92,79.25c.38.3.82.78,1.06,1.12l-.3.25c-.22-.32-.7-.84-1.05-1.12l.29-.25ZM138.94,78.95c.38.3.85.77,1.09,1.1l-.31.24c-.22-.33-.71-.82-1.06-1.1l.28-.25Z"/>
        <path class="cls-7" d="M147.24,82.59h-2.64l.14.04s-.07.09-.16.1c-.21,1.45-.86,2.89-2.47,3.69-.09-.1-.3-.29-.43-.39,1.58-.78,2.13-2,2.31-3.44h-3.05v-.54h6.31v.54ZM146.07,80.41h-4.44v-.54h4.44v.54ZM146.17,79.23c.33.34.7.89.88,1.26l-.32.22c-.17-.37-.55-.94-.87-1.26l.31-.22ZM147.11,78.96c.33.34.71.89.9,1.26l-.33.2c-.17-.35-.57-.92-.88-1.25l.3-.21Z"/>
        <path class="cls-7" d="M149.29,80.1c.83.26,1.79.68,2.38,1.09l-.3.5c-.58-.41-1.52-.83-2.33-1.11l.26-.48ZM149.26,85.64c2.84-.88,4.73-2.47,5.68-4.69.17.14.35.24.52.33-1,2.19-2.95,3.89-5.66,4.8,0,.07-.06.15-.11.18l-.43-.62Z"/>
        <path class="cls-7" d="M160.35,83.85l.29,2.51-.58.06-.28-2.5-3,.38-.07-.53,3.01-.38-.21-1.8-2.51.33-.07-.54,2.52-.32-.18-1.58.78-.03c0,.08-.07.14-.18.18l.14,1.36,2.43-.32.06.54-2.43.31.21,1.79,3.01-.38.07.53-3.02.38Z"/>
      </g>
      <g>
        <path class="cls-7" d="M167.1,113.16s-.06.07-.1.09c-.63,3.03-2.2,4.83-4.81,5.75-.09-.14-.26-.35-.37-.46,2.48-.81,4-2.59,4.48-5.01h-5.23v-.54h5.44l.11-.07.49.25Z"/>
        <path class="cls-7" d="M174.85,114.13s-.05.05-.08.06c-.34.78-1.03,1.63-1.63,2.13-.09-.08-.28-.22-.39-.29.57-.42,1.18-1.15,1.38-1.66h-4.63v-.46h4.87l.06-.04.42.26ZM172.28,115.28s-.06.1-.15.11c-.18,1.43-.71,2.78-2.01,3.65-.1-.08-.29-.23-.42-.3,1.31-.84,1.79-2,1.94-3.55l.64.09Z"/>
        <path class="cls-7" d="M177.45,117.26c1.76.2,3.81.66,5.07,1.15l-.24.56c-1.14-.47-3.26-.98-5.02-1.18l.19-.53ZM178.09,114.81c1.27.13,2.87.43,3.86.74l-.18.56c-.94-.32-2.55-.62-3.85-.75l.17-.54ZM178.12,112.34c1.36.14,3.1.46,4.21.86l-.23.56c-1.1-.42-2.8-.73-4.16-.88l.18-.54Z"/>
        <path class="cls-7" d="M185.89,116.56v-3.89l.76.05c0,.07-.06.13-.19.14v3.69h-.57ZM190.34,112.36c0,.08-.06.12-.19.14v2.54c0,1.68-.58,3.21-2.87,4.1-.08-.12-.28-.33-.42-.43,2.21-.82,2.71-2.19,2.71-3.67v-2.73l.77.05Z"/>
        <path class="cls-7" d="M192.67,115.2h6.68v.57h-6.37c-.05.08-.15.14-.26.15l-.05-.72Z"/>
        <path class="cls-7" d="M207.47,113.45s-.06.06-.12.08c-.74,1.14-2,2.33-3.23,3.21.62.5,1.23,1.11,1.64,1.56l-.49.42c-.84-.98-2.41-2.3-3.77-3.09l.38-.41c.57.32,1.21.74,1.78,1.18,1.08-.77,2.17-1.8,2.81-2.73h-5.87v-.54h6.29l.1-.05.47.36Z"/>
        <path class="cls-7" d="M208.67,115.2h6.68v.57h-6.37c-.05.08-.15.14-.26.15l-.05-.72Z"/>
        <path class="cls-7" d="M222.3,116.39c-.82-.44-1.93-.96-2.81-1.3v4h-.6v-6.95l.81.05c0,.09-.07.14-.21.17v2.33l.12-.17c.94.34,2.17.9,3.01,1.33l-.32.54Z"/>
      </g>
      <g>
        <ellipse class="cls-3" cx="57.15" cy="168.33" rx="39" ry="21.39"/>
        <g>
          <path class="cls-7" d="M51.67,163.12v.67h-2.35v3.21h-.69v-3.21h-3.11c-.22,1.29-.8,2.43-2.2,3.32-.11-.15-.35-.39-.53-.5,1.24-.77,1.79-1.74,2.02-2.82h-2.19v-.67h2.3c.05-.43.06-.87.06-1.32v-1.3h-2.03v-.67h2.03v-2.08l.89.06c-.01.07-.07.12-.21.14v1.88h2.97v-2.09l.89.06c-.01.07-.07.12-.2.14v1.89h2.11v.67h-2.11v2.62h2.35ZM45.67,161.81c0,.45,0,.88-.05,1.31h3.02v-2.62h-2.97v1.31Z"/>
          <path class="cls-7" d="M57.73,159.53c-.04.09-.12.16-.25.16-.36,3.11-1.4,5.82-3.06,5.82-.84,0-1.6-.84-1.6-2.42,0-2.4,1.87-4.41,4.5-4.41,2.89,0,4.14,1.83,4.14,3.78,0,2.38-1.38,3.53-3.8,4.09-.09-.16-.26-.43-.42-.61,2.3-.44,3.48-1.56,3.48-3.45,0-1.65-1.06-3.15-3.4-3.15-.1,0-.21.01-.3.02l.71.17ZM56.77,159.4c-2.02.25-3.27,1.92-3.27,3.67,0,1.07.46,1.74.94,1.74,1.21,0,2.08-2.67,2.33-5.41Z"/>
          <path class="cls-7" d="M62.48,165.77c1.03-.18,2.65-.52,4.2-.85l.05.56c-1.4.34-2.89.67-3.82.88-.01.08-.06.13-.13.15l-.3-.74ZM66.61,158.27v.63h-3.98v-.63h3.98ZM66.36,159.92v2.71h-3.45v-2.71h3.45ZM63.72,163.04c.25.6.42,1.38.44,1.9l-.59.15c-.02-.52-.18-1.31-.4-1.92l.55-.13ZM65.74,162.06v-1.57h-2.24v1.57h2.24ZM66.18,163.19c-.03.06-.1.1-.21.1-.12.55-.34,1.37-.53,1.9-.11-.04-.4-.16-.51-.19.17-.55.38-1.44.47-2.05l.78.24ZM68.81,165.67s-.09.07-.19.08c-.42.44-1.31.97-2.09,1.26-.1-.13-.31-.34-.46-.46.79-.27,1.67-.78,2.08-1.22l.66.34ZM67.22,159.83h1.4c.09-.32.17-.7.23-1.03h-1.97v-.6h4.94v.6h-2.26c-.07.3-.17.68-.28,1.03h2.17v5.28h-4.23v-5.28ZM70.79,161.41v-1.04h-2.96v1.04h2.96ZM70.79,162.99v-1.07h-2.96v1.07h2.96ZM70.79,164.57v-1.07h-2.96v1.07h2.96ZM71.42,167c-.36-.36-1.12-.92-1.73-1.3l.52-.33c.59.36,1.36.89,1.76,1.26l-.55.37Z"/>
          <path class="cls-7" d="M39.5,174.32c-.22.93-.61,1.79-1.47,2.27l-.54-.39c.79-.42,1.21-1.2,1.4-2.07l.61.19ZM42.69,174.9c-.36-.43-1.14-1-1.83-1.36l.43-.37h-2.54v-5.02h6.81v5.02h-4.17c.67.33,1.42.85,1.79,1.29l-.49.44ZM39.38,168.74v3.84h5.52v-3.84h-5.52ZM44.31,170.36h-2.05c-.02.08-.04.16-.07.24.73.42,1.66.99,2.15,1.36l-.38.42c-.43-.35-1.24-.88-1.96-1.3-.31.61-.86,1.04-1.83,1.33-.06-.13-.2-.34-.32-.44,1.08-.31,1.58-.8,1.81-1.61h-1.7v-.53h1.81c.04-.29.07-.61.08-.97l.75.05c-.01.07-.07.12-.18.13-.02.28-.04.54-.07.79h1.96v.53ZM40.85,175.9c0,.27.08.32.62.32h1.85c.44,0,.52-.14.56-1.14.15.12.42.21.61.26-.09,1.21-.3,1.49-1.11,1.49h-1.95c-1,0-1.25-.19-1.25-.92v-1.84l.86.06c0,.07-.06.12-.19.14v1.63ZM46.19,176.52c-.3-.64-1.08-1.54-1.83-2.17l.55-.3c.76.6,1.55,1.46,1.87,2.13l-.59.34Z"/>
          <path class="cls-7" d="M49.25,174.9c-.04.07-.11.1-.2.09-.24.73-.65,1.52-1.11,2-.11-.1-.34-.26-.48-.35.44-.44.82-1.19,1.04-1.96l.75.22ZM56.34,172.76l.35.06c0,.06-.01.13-.02.21-.14,2.48-.29,3.37-.57,3.68-.21.25-.44.28-.89.28-.21,0-.46-.01-.71-.02,0-.18-.08-.44-.18-.61.42.05.79.05.94.05.16,0,.24-.02.32-.11.2-.2.33-.96.45-2.95h-.71c-.41,1.47-1.15,2.84-2.08,3.67-.11-.1-.31-.27-.45-.35.85-.72,1.53-1.94,1.92-3.32h-.87c-.47,1.13-1.24,2.23-2.08,2.92-.1-.11-.29-.29-.42-.38.73-.58,1.43-1.5,1.88-2.54h-.83c-.31.49-.68.93-1.05,1.26-.1-.12-.3-.3-.44-.4v.24h-2.97v-6.36h2.97v6.1c.64-.55,1.25-1.44,1.62-2.4h-.72v-3.67h4.5v3.67h-2.94c-.04.07-.11.1-.2.09-.12.3-.26.61-.42.9h3.47l.13-.02ZM50.3,170.03v-1.37h-1.77v1.37h1.77ZM50.3,171.95v-1.38h-1.77v1.38h1.77ZM50.3,173.88v-1.39h-1.77v1.39h1.77ZM50.63,176.48c-.15-.42-.51-1.08-.83-1.57l.52-.23c.34.48.7,1.11.86,1.54l-.55.26ZM52.44,168.68v1.01h3.22v-1.01h-3.22ZM52.44,170.21v1.02h3.22v-1.02h-3.22Z"/>
          <path class="cls-7" d="M61.22,168.31c-.03.07-.11.1-.23.1-.66,1.51-1.71,3.03-2.78,4-.14-.14-.41-.36-.59-.46,1.07-.89,2.1-2.41,2.72-3.94l.88.3ZM62.27,171.63c-.03.08-.12.13-.25.13-.47,1.19-1.21,2.79-1.88,4,1.41-.04,3.08-.1,4.69-.16-.48-.68-1.04-1.41-1.54-2l.63-.3c.93,1.06,1.99,2.47,2.5,3.38l-.67.37c-.13-.25-.31-.54-.52-.86-2.51.15-5.18.26-6.84.33-.02.08-.09.13-.16.14l-.28-.84,1.43-.04c.7-1.24,1.5-3.07,1.96-4.4l.93.25ZM63.86,168.01c.69,1.35,1.98,2.98,2.92,3.83-.18.14-.43.39-.56.57-.94-.96-2.23-2.7-3.01-4.13l.65-.27Z"/>
          <path class="cls-7" d="M67.94,168.16h8.43v8.83h-.66v-.44h-7.13v.44h-.64v-8.83ZM68.58,175.94h7.13v-7.16h-7.13v7.16ZM72.5,173.38c.22.26.5.51.83.74.43-.27.95-.65,1.25-.91l.55.34s-.1.06-.2.06c-.31.22-.78.52-1.2.76.52.31,1.1.55,1.67.7-.13.1-.29.31-.38.45-1-.31-2.05-.94-2.74-1.68v1.8h-.61v-1.57c-.7.48-1.56.89-2.35,1.18-.08-.11-.26-.32-.36-.42.94-.31,2.01-.83,2.75-1.45h-1.78v-1.69h4.41v1.69h-1.84ZM75.15,170.73v.46h-6.05v-.46h2.69v-.67h-2.06v-.45h2.06v-.61l.82.06c0,.06-.06.11-.19.13v.42h2.13v.45h-2.13v.67h2.73ZM70.51,172.1v.86h3.22v-.86h-3.22Z"/>
        </g>
      </g>
      <g>
        <path class="cls-7" d="M93.22,65.78h-1.62c.56.59,1.46,1.14,2.25,1.4-.1.08-.22.24-.28.35-.81-.32-1.73-.94-2.32-1.61v1.7h-.41v-1.68c-.59.66-1.49,1.26-2.27,1.58-.07-.1-.19-.26-.28-.34.77-.28,1.65-.82,2.21-1.4h-1.53v-2.21h1.88v-.55h-2.41v-.38h2.41v-.58l.53.03s-.04.07-.12.08v.47h2.48v.38h-2.48v.55h1.98v2.21ZM89.35,63.89v.62h1.48v-.62h-1.48ZM89.35,64.82v.63h1.48v-.63h-1.48ZM92.81,63.89h-1.57v.62h1.57v-.62ZM92.81,65.45v-.63h-1.57v.63h1.57Z"/>
        <path class="cls-7" d="M94.74,62.58h4.73v4.96h-.43v-.52h-3.88v.55h-.41v-5ZM95.15,66.62h3.88v-3.64h-3.88v3.64Z"/>
      </g>
      <g>
        <path class="cls-7" d="M78.75,69.1h-2.51v.66h2.18v3.38c0,.25-.07.37-.25.43-.19.06-.54.07-1.03.06-.03-.11-.09-.26-.15-.37.2,0,.4.01.55.01.44,0,.47,0,.47-.14v-3h-3.89v3.48h-.4v-3.85h2.1v-.66h-2.46v-.38h2.46v-.67l.54.04s-.04.07-.13.08v.55h2.51v.38ZM77.62,72.43h-1.39v1.15h-.39v-1.15h-1.33v-.35h1.33v-.67h-1.23v-.34h.67c-.05-.2-.19-.5-.34-.71l.32-.09c.16.21.3.51.36.71l-.31.1h1.36c-.08-.03-.19-.07-.24-.09.13-.2.28-.53.37-.74l.44.13s-.06.05-.12.05c-.1.19-.25.46-.38.65h.82v.34h-1.33v.67h1.39v.35Z"/>
        <path class="cls-7" d="M79.74,68.58h4.73v4.96h-.43v-.52h-3.88v.55h-.41v-4.99ZM80.15,72.62h3.88v-3.64h-3.88v3.64Z"/>
      </g>
      <g>
        <rect class="cls-2" x="65.93" y="66.56" width="15" height="53.45" transform="translate(-34.27 43.34) rotate(-26.92)"/>
        <path class="cls-7" d="M78.77,120.72l-.07-.14-24.26-47.8,13.66-6.93.07.14,24.26,47.8-13.66,6.93ZM54.85,72.92l24.05,47.38,13.1-6.65-24.05-47.38-13.1,6.65Z"/>
      </g>
      <g>
        <path class="cls-7" d="M63.1,74.67c-.07,0-.12-.06-.14-.12-.62-.05-1.54-.29-2.21-.61.04-.14.09-.39.09-.52.65.34,1.52.57,2.16.57l.11.68ZM65.56,77.95l-1.04-2.05-1.9.96c-.56.29-.7.04-1.37-1.29.12-.1.27-.26.37-.4.15.31.28.59.39.8.22.43.24.46.38.39l1.89-.96-.99-1.96,2.09-1.06,2.29,4.51-2.09,1.06ZM63.53,79.5c.27-.48.66-1.41.9-2.14l.42.32c-.22.72-.57,1.66-.84,2.16l-.48-.33ZM65.18,73.07l-1.24.63,1.8,3.54,1.24-.63-1.8-3.54ZM69.23,77.17l-.46.23-3.19-6.28.46-.23,1.46,2.87.86-.44.29.65c-.06.02-.11,0-.17-.09l-.73.37,1.48,2.92Z"/>
        <path class="cls-7" d="M66.39,83.81l1.51,2.98-.47.24-3.25-6.4.47-.24,1.48,2.92,2.27-1.15-1.14-2.25.47-.24,1.14,2.25,2.08-1.05-1.29-2.55.47-.24,2.87,5.65-.47.24-1.32-2.6-2.08,1.05,1.2,2.36-.47.24-1.2-2.36-2.27,1.15Z"/>
        <path class="cls-7" d="M67.96,88.85l2.76-1.4,2.25,4.43-2.76,1.4-.25-.49.31-.16-1.76-3.47-.31.16-.24-.47ZM72.29,91.61l-1.76-3.47-1.58.8,1.76,3.47,1.58-.8ZM75.78,91.67l-1.51-2.98-1.1.56,1.28,2.53-.45.23-2.76-5.44.44-.23,1.23,2.42,1.1-.56-1.48-2.91.44-.22,1.48,2.91,1.06-.54.28.65c-.05.02-.11,0-.17-.09l-.92.47,1.51,2.98-.44.22Z"/>
        <path class="cls-7" d="M77.5,94.61l-.02.41s-.09-.02-.12-.05c-.7.07-1.46.02-2.18-.11-.06.4-.19,1.19-.24,1.41l-.53-.08c.09-.25.23-.78.32-1.2l-2.89,1.47-.24-.47,2.66-1.35c-.49-.14-.94-.32-1.34-.52.1-.12.25-.35.29-.47.96.53,2.39.9,3.64.85l-1.02-2.02.44-.22.55,1.08,1.35-.69.27.62c-.05.02-.11,0-.17-.08l-1.21.62.37.73.07.06ZM76.5,100.29l-.44.23-.87-1.72-1.71.87-.24-.47,1.71-.87-.86-1.7.44-.22.86,1.69,1.04-.53-.7-1.37.44-.22.7,1.37,1-.51-.78-1.53.43-.22,1.27,2.51c0-.12,0-.39-.01-.39.47.04,1.2.01,1.67-.04l.05.66c-.05,0-.1-.04-.14-.12-.44,0-1.09,0-1.54-.04l.51,1.01-.43.22-.8-1.58-1,.51.71,1.4-.44.22-.71-1.4-1.04.53.87,1.72ZM79.36,95.1c-.27.44-.67.94-.96,1.2l-.38-.34c.3-.26.72-.76.99-1.19l.35.33Z"/>
        <path class="cls-7" d="M80.81,104.96c-.05.02-.11,0-.17-.09l-.78.4.79,1.55-.46.23-.79-1.55-1.75.89c-.6.3-.76,0-1.42-1.31.12-.09.28-.27.38-.41.12.27.25.51.35.7.29.58.31.59.46.52l1.74-.88-2.08-4.1.46-.23,2.08,4.1.92-.47.28.65ZM76.4,103.82c.27-.39.56-1.12.7-1.75l.47.28c-.14.62-.39,1.37-.66,1.76l-.51-.29ZM80.61,103.22l1.52,2.99-.45.23-3.25-6.41.45-.23,1.49,2.94.99-.5-1.18-2.32.45-.23,1.18,2.32.89-.45.28.65c-.05.02-.11,0-.17-.09l-.75.38,1.25,2.47-.45.23-1.25-2.47-.99.5Z"/>
        <path class="cls-7" d="M80.61,108.45c-.67.29-1.41.57-1.95.49l.02-.36c.5.06,1.19-.18,1.83-.47l.1.33ZM82.63,110.21l.08.24-.14.07c-1.87.82-2.54,1.07-2.85.99-.22-.05-.33-.18-.49-.5-.07-.13-.14-.3-.22-.47.11-.07.26-.2.34-.31.12.28.23.52.28.62.1.21.19.3,1.24-.11l-.23-.19c.23-.2.53-.59.73-.91l.21.19c-.19.32-.47.66-.67.88h0c.32-.12.71-.28,1.21-.5l-.94-1.85-.18.09-.21-.41,3.83-1.95,1.34,2.63-.41.21-.54-1.07-.68.34.47.92-.39.2-.47-.92-.69.35.47.93-.39.2-.47-.93-.71.36.41.8.07.09ZM79.36,109.47c.37-.17.88-.49,1.27-.78l.17.24c-.37.3-.89.62-1.25.79l-.19-.26ZM84.76,113.53l-.6-1.17c-1.25.91-2.15,1.92-2.26,3.02-.14-.06-.39-.12-.55-.13.19-1.23,1.17-2.31,2.6-3.32l-.37-.72c-1.08.53-2.53,1.11-3.79.9.04-.12.06-.38.05-.51,1.28.21,2.65-.4,3.69-.93l2.72-1.38,1.4,2.76-2.89,1.47ZM81.16,109.41c-.28.34-.69.71-.98.9l-.21-.23c.3-.19.71-.56,1.01-.88l.18.22ZM82.28,107.8l-.71.36.38.74.71-.36-.38-.74ZM83.04,108.35l.69-.35-.38-.74-.69.35.38.74ZM84.79,107.46l-.38-.74-.68.34.38.74.68-.34ZM86.98,111.86l-.95-1.88-2,1.01.95,1.88,2-1.01Z"/>
      </g>
      <g id="JR吉祥寺駅">
        <g>
          <rect class="cls-2" x="37.11" y="50.78" width="50.04" height="15.16"/>
          <path class="cls-7" d="M87.3,66.09h-50.34v-15.46h50.34v15.46ZM37.26,65.79h49.73v-14.85h-49.73v14.85Z"/>
        </g>
        <g>
          <path class="cls-7" d="M43.78,58.59c0,1.56-.74,2.03-1.72,2.03-.27,0-.59-.06-.76-.13l.1-.54c.15.06.37.1.62.1.7,0,1.1-.31,1.1-1.52v-4.09h.66v4.15Z"/>
          <path class="cls-7" d="M47.45,57.61c.47.15.75.61.9,1.27.19.88.33,1.42.45,1.65h-.69c-.1-.18-.23-.71-.39-1.47-.18-.85-.51-1.22-1.23-1.22h-.74v2.69h-.66v-6c.38-.08.9-.13,1.38-.13.79,0,1.31.16,1.67.5.29.26.46.68.46,1.13,0,.81-.49,1.33-1.14,1.56v.02ZM46.52,57.32c.85,0,1.39-.48,1.39-1.22,0-.9-.68-1.18-1.42-1.18-.36,0-.62.03-.75.06v2.33h.78Z"/>
          <path class="cls-7" d="M58.63,55.47h-3.37v1.25h2.86v.5h-6.16v-.5h2.74v-1.25h-3.29v-.5h3.29v-1.2l.71.05c0,.06-.06.1-.16.11v1.04h3.37v.5ZM52.52,61.22v-3.13h5.01v3.13h-.55v-.35h-3.93v.35h-.53ZM56.98,58.59h-3.93v1.79h3.93v-1.79Z"/>
          <path class="cls-7" d="M62.07,55.27l.36.21s-.06.07-.1.08c-.26.66-.65,1.32-1.09,1.91.34.24.98.72,1.16.86l-.31.44c-.18-.2-.6-.56-.94-.84v3.28h-.53v-3.01c-.35.38-.72.7-1.08.97-.06-.14-.2-.38-.29-.48.92-.62,1.9-1.74,2.43-2.89h-2.29v-.5h1.22v-1.53l.68.04c0,.06-.05.1-.15.11v1.38h.83l.09-.03ZM66.72,58.77v.5h-1.94v1.93h-.54v-1.93h-1.92v-.5h1.92v-1.18h-1.55v-.5h1.55v-1.13h-1.74v-.49h2.84c-.11-.05-.35-.17-.36-.17.26-.41.56-1.07.73-1.53l.62.26s-.08.07-.17.07c-.19.4-.49.98-.74,1.37h1.14v.49h-1.78v1.13h1.59v.5h-1.59v1.18h1.94ZM63.35,53.82c.27.44.54,1.03.64,1.42l-.48.19c-.1-.39-.35-.99-.62-1.44l.46-.17Z"/>
          <path class="cls-7" d="M71.25,56.41h3.38v.51h-7.26v-.51h3.33v-1.12h-2.63v-.51h2.63v-1.01l.71.05c0,.06-.06.1-.16.11v.85h2.8v.51h-2.8v1.12ZM72.91,57.02c0,.06-.05.1-.16.11v.89h1.76v.52h-1.76v1.98c0,.68-.35.68-1.82.68-.02-.15-.11-.38-.19-.53.3,0,.57,0,.79,0,.66,0,.67,0,.67-.18v-1.97h-4.65v-.52h4.65v-1.04l.71.04ZM69.87,60.47c-.22-.42-.76-1.02-1.26-1.43l.46-.3c.5.41,1.06.98,1.29,1.4l-.5.33Z"/>
          <path class="cls-7" d="M75.96,58.8c-.04.74-.13,1.54-.45,1.98l-.31-.18c.29-.42.38-1.15.42-1.86l.34.06ZM78.47,57.78l.26.04v.16c-.12,2.06-.21,2.77-.42,3.01-.15.18-.31.22-.67.22-.15,0-.34,0-.52-.02-.02-.14-.06-.33-.13-.45.3.02.58.03.69.03.23,0,.35-.03.46-1.17l-.27.12c-.08-.29-.29-.74-.49-1.07l.27-.1c.2.31.38.73.48,1.01h0c.03-.34.06-.78.1-1.32h-2.1v.21h-.46v-4.34h2.98v.46h-1.22v.77h1.05v.44h-1.05v.78h1.05v.44h-1.05v.8h.91l.11-.02ZM76.98,54.58h-.84v.77h.84v-.77ZM76.98,56.56v-.78h-.84v.78h.84ZM76.14,57v.8h.84v-.8h-.84ZM76.31,60.39c.02-.41-.04-1.02-.12-1.5l.3-.04c.1.47.15,1.09.14,1.49l-.32.05ZM77.08,58.74c.18.41.32.94.36,1.3l-.3.08c-.03-.35-.18-.9-.34-1.31l.28-.06ZM82.43,57.38h-1.33c.25,1.54.74,2.81,1.69,3.41-.12.1-.29.3-.37.44-1.02-.74-1.54-2.11-1.8-3.85h-.82c-.02,1.22-.15,2.78-.92,3.83-.09-.09-.31-.22-.43-.28.78-1.06.85-2.57.85-3.74v-3.08h3.13v3.27ZM81.94,54.62h-2.13v2.26h2.13v-2.26Z"/>
        </g>
      </g>
      <g>
        <path class="cls-7" d="M19.73,49.97h6.57v.54h-6.57v-.54ZM20.16,44.47h5.72v.54h-5.72v-.54ZM20.65,47.14h4.65v.54h-4.65v-.54Z"/>
        <path class="cls-7" d="M33.96,49.48h-4.64v.26h4.03l.1-.02.3.06s-.02.08-.03.14c-.1.77-.19,1.2-.69,1.2-.12,0-.37,0-.61-.02,0-.09-.05-.23-.09-.34l-.3.16c-.08-.19-.28-.47-.47-.66l.31-.15c.2.18.4.44.5.63l-.04.02c.22.03.4.03.49.03.25,0,.3-.2.37-.74h-4.35v-2.54h.91c.08-.18.17-.39.22-.54l.37.11v-1.13c-.14.15-.28.29-.42.41-.07-.08-.22-.22-.31-.28.4-.3.81-.82,1.08-1.34h-1.22l.44.17s-.07.07-.15.07c-.13.19-.27.39-.43.58l.17.04s-.05.09-.14.1v1.6h-.43v-1.3c-.19.18-.37.35-.56.49-.07-.08-.2-.22-.29-.29v.58c0,1.27-.1,3.11-.73,4.37-.07-.1-.28-.25-.39-.3.6-1.19.65-2.86.65-4.06v-2.47h2.84v-.61l.67.05c0,.06-.04.1-.15.11v.45h2.92v.44h-1.88l.49.16s-.07.07-.15.07l-.14.24h1.41v.29h-1.43v.3h1.23v.26h-1.23v.3h1.23v.26h-1.23v.3h1.61v.31h-3.03v.13h-.43v-.06c-.03.06-.07.14-.11.21h2.77v1.41h-3.69v.27h4.64v.29ZM27.93,50.92c.28-.2.52-.58.64-.89.29.13.34.15.37.18-.15.33-.35.7-.64.94l-.37-.22ZM28.08,44.74v1.44c.47-.34.99-.88,1.32-1.44h-1.32ZM32.54,47.79h-3.23v.28h3.23v-.28ZM29.31,48.63h3.23v-.29h-3.23v.29ZM29.61,51.06c-.02-.22-.1-.55-.2-.81l.37-.08c.11.24.19.57.22.78l-.39.1ZM30.82,51.04c-.05-.22-.19-.53-.34-.76l.35-.12c.16.22.3.53.36.74l-.37.14ZM31.75,45.79v-.3h-.98v.3h.98ZM31.75,46.35v-.3h-.98v.3h.98ZM31.75,46.91v-.3h-.98v.3h.98ZM30.92,44.74l.31.12c-.03.06-.09.07-.15.06-.05.1-.11.19-.17.29h.84c.08-.16.17-.34.22-.47h-1.06Z"/>
      </g>
      <g>
        <path class="cls-7" d="M277.69,44.75h-2.39v1.25h2.02v5.07h-.51v-.47h-5v.51h-.49v-5.11h1.79v-1.25h-2.21v-.52h6.79v.52ZM276.81,50.1v-3.59h-1.53v1.56c0,.18.03.21.22.21h.64c.17,0,.2-.08.22-.66.1.08.29.15.43.19-.06.76-.19.94-.6.94h-.76c-.53,0-.65-.14-.65-.68v-1.57h-1.18v.35c0,.77-.24,1.75-1.24,2.42-.07-.1-.25-.29-.37-.35.94-.61,1.13-1.43,1.13-2.09v-.34h-1.32v3.59h5ZM274.79,46.01v-1.25h-1.18v1.25h1.18Z"/>
        <path class="cls-7" d="M278.93,45.76c.34.24.6.49.8.75.22-.26.42-.52.58-.79l.55.23c-.02.06-.09.07-.17.06-.19.3-.43.61-.7.9.36.64.42,1.31.42,2,0,2.2-.51,2.22-1.29,2.22-.1,0-.22,0-.33,0,0-.16-.06-.36-.15-.5.16.02.31.02.44.02.15,0,.28,0,.37-.02.43-.03.48-.85.48-1.75,0-.08,0-.16,0-.25-.38.46-.87.91-1.31,1.2-.07-.13-.19-.3-.31-.41.55-.29,1.2-.86,1.56-1.42-.04-.25-.11-.5-.22-.74-.31.3-.65.58-.97.78-.08-.1-.23-.27-.34-.36.35-.22.73-.51,1.06-.84-.19-.28-.46-.55-.82-.81l.34-.29ZM280.18,45.58v-.61h-1.74v-.5h1.74v-.78l.64.04c0,.06-.05.1-.15.11v.63h2.13v-.78l.65.04c0,.06-.04.1-.15.11v.63h1.79v.5h-1.79v.61h-.5v-.61h-2.13v.61h-.49ZM283.39,45.85c0,.06-.07.12-.16.14v1.8c0,.54.32,2.13,2.08,2.87-.1.12-.24.35-.31.47-1.4-.61-1.91-1.86-2.02-2.42h0c-.11.56-.63,1.78-2.09,2.42-.06-.11-.2-.34-.3-.45,1.8-.76,2.14-2.33,2.14-2.89v-1.98l.67.04ZM280.77,48.46c.48-.4.7-1.1.8-1.83.34.11.39.12.43.14-.11.76-.32,1.53-.84,1.96l-.4-.26ZM285.19,46.79s-.08.07-.17.07c-.22.49-.61,1.19-.91,1.65,0,0-.38-.19-.39-.19.3-.46.67-1.23.88-1.77l.59.24Z"/>
        <path class="cls-7" d="M286.06,47.83c.45.14,1.02.38,1.31.59l-.21.42c-.29-.22-.85-.49-1.3-.64l.2-.38ZM286.05,50.63c.4-.4.97-1.09,1.44-1.71l.24.39c-.42.57-.91,1.21-1.28,1.62,0,.02,0,.05,0,.07,0,.05-.01.09-.04.11l-.37-.49ZM286.58,44.75v.78h-.5v-1.23h2.89v-.61l.66.04c0,.06-.04.1-.15.11v.46h2.99v1.2h-.52v-.74h-1.93s.32.02.32.02c0,.06-.04.1-.15.11v.77c0,.16.04.18.32.18h.96c.19,0,.22-.03.25-.3.1.07.29.13.43.16-.04.44-.19.56-.61.56h-1.07c-.61,0-.77-.1-.77-.6v-.9h-3.12ZM288.73,44.88c0,.06-.05.1-.14.1-.22.78-.69,1.29-2.2,1.55-.04-.13-.16-.33-.25-.42,1.35-.19,1.8-.58,1.96-1.3l.63.06ZM286.54,46.68c.43.15.98.41,1.26.62l-.22.41c-.28-.21-.82-.49-1.26-.66l.22-.37ZM290.44,50.48h2.23v.44h-4.88v-.44h2.17v-.84h-1.7v-.42h1.7v-.63l.62.05c0,.06-.04.09-.14.1v.48h1.83v.42h-1.83v.84ZM292.55,48.06v.43h-4.63v-.43h2.04v-.71h-1.59v-.42h1.59v-.54l.62.05s-.04.09-.14.1v.39h1.68v.42h-1.68v.71h2.11Z"/>
      </g>
    </g>
  </g>
</svg>