<?xml version="1.0" encoding="UTF-8"?>
<svg id="_レイヤー_2" data-name="レイヤー 2" xmlns="http://www.w3.org/2000/svg" viewBox="0 0 285.46 147.72">
  <defs>
    <style>
      .cls-1 {
        fill: #f8b62d;
      }

      .cls-2 {
        fill: #fff;
      }

      .cls-3 {
        fill: #e60012;
      }

      .cls-4 {
        fill: #231815;
      }

      .cls-5 {
        fill: #b5b5b6;
      }
    </style>
  </defs>
  <g id="_レイヤー_1-2" data-name="レイヤー 1">
    <g>
      <polygon class="cls-3" points="54.74 95.75 56.94 102.5 64.04 102.5 58.29 106.68 60.49 113.43 54.74 109.26 48.99 113.43 51.19 106.68 45.44 102.5 52.55 102.5 54.74 95.75"/>
      <path class="cls-5" d="M146.4,144.73c-2.21,0-4-1.79-4-4V7c0-2.21,1.79-4,4-4s4,1.79,4,4v133.73c0,2.21-1.79,4-4,4Z"/>
      <path class="cls-5" d="M279.45,50.14H6.02c-3.11,0-5.63-2.52-5.63-5.63s2.52-5.63,5.63-5.63h273.43c3.11,0,5.63,2.52,5.63,5.63s-2.52,5.63-5.63,5.63Z"/>
      <path class="cls-5" d="M81.4,79.5c-1.66,0-3-1.34-3-3v-33c0-1.66,1.34-3,3-3s3,1.34,3,3v33c0,1.66-1.34,3-3,3Z"/>
      <path class="cls-5" d="M111.4,144.73c-2.21,0-4-1.79-4-4V7c0-2.21,1.79-4,4-4s4,1.79,4,4v133.73c0,2.21-1.79,4-4,4Z"/>
      <path class="cls-5" d="M197.9,147.72c-3.31,0-6-2.69-6-6V6c0-3.31,2.69-6,6-6s6,2.69,6,6v135.72c0,3.31-2.69,6-6,6Z"/>
      <path class="cls-5" d="M41.4,144.73c-2.21,0-4-1.79-4-4V7c0-2.21,1.79-4,4-4s4,1.79,4,4v133.73c0,2.21-1.79,4-4,4Z"/>
      <path class="cls-5" d="M279.46,96.22H6c-2.05,0-3.71-1.66-3.71-3.71s1.66-3.71,3.71-3.71h273.46c2.05,0,3.71,1.66,3.71,3.71s-1.66,3.71-3.71,3.71Z"/>
      <ellipse class="cls-1" cx="180.98" cy="60.06" rx="6.29" ry="6.44"/>
      <ellipse class="cls-1" cx="124.7" cy="59.95" rx="6.29" ry="6.44"/>
      <ellipse class="cls-1" cx="27.7" cy="60.95" rx="6.29" ry="6.44"/>
      <g>
        <path class="cls-4" d="M42.24,58.03c.5.03,1.16.03,1.7.03.36,0,.77,0,1.1-.02,0-.38-.02-.83-.02-1.11l.81.04c0,.1-.08.14-.22.17,0,.13,0,.74,0,.88.94-.05,1.86-.13,2.65-.31l.07.53c-.78.18-1.71.26-2.73.3,0,.48.02.98.03,1.47.78-.05,1.61-.15,2.25-.31l.06.52c-.67.14-1.51.24-2.31.28l.06,1.34c.74.24,1.52.66,2.35,1.25l-.35.49c-.72-.57-1.4-.95-1.98-1.18,0,.13,0,.27,0,.38,0,.76-.46,1.2-1.43,1.2-1.02,0-1.76-.42-1.76-1.17s.87-1.19,1.77-1.19c.26,0,.54.02.84.1,0-.34-.02-.76-.03-1.19-.26,0-.54.02-.78.02-1.37,0-1.75-.22-1.75-.68,0-.3.23-.55.74-.88l.38.25c-.36.2-.55.38-.55.54,0,.24.38.29,1.39.29.18,0,.36,0,.54,0l-.05-1.48c-.34.02-.74.02-1.1.02-.51,0-1.24,0-1.72-.02v-.53ZM45.19,62.19c-.32-.09-.62-.13-.9-.13-.61,0-1.22.25-1.22.73s.56.7,1.26.7c.63,0,.87-.28.87-.84v-.46Z"/>
        <path class="cls-4" d="M50.96,57.87c-.02.07-.1.12-.22.13-.1.6-.15,1.32-.15,1.99,0,.3.02.58.03.84.1,1.36.65,2.18,1.26,2.17.32,0,.74-.82,1.02-1.71.11.11.33.26.46.34-.37,1.08-.83,1.96-1.5,1.97-1.02.02-1.72-1.22-1.83-2.75-.02-.3-.03-.64-.03-1,0-.7.04-1.47.12-2.15l.82.16ZM56.26,61.58c-.22-1.4-.94-2.41-2.02-3.01l.35-.43c1.17.62,2.02,1.78,2.25,3.25l-.59.18Z"/>
        <path class="cls-4" d="M58.4,63.77c-.25-.58-.34-1.77-.34-2.81s.17-2.4.43-3.73l.78.15c-.02.08-.1.14-.21.14-.29,1.1-.46,2.52-.46,3.45,0,.61,0,1.22.07,1.51.18-.48.5-1.25.66-1.62l.36.34c-.26.54-.82,1.76-.82,2.13,0,.11.02.23.08.38l-.54.06ZM60.2,59.11c.18,0,1.48,0,2.01-.02-.03-.69-.06-1.34-.07-1.93l.81.02c0,.08-.08.14-.21.17,0,.51.02,1.09.04,1.7.62-.07,1.14-.18,1.57-.32l.07.55c-.38.13-.94.24-1.62.3l.1,2.27c.6.25,1.22.64,1.63,1.02l-.31.51c-.34-.33-.8-.68-1.3-.91,0,.66-.11,1.44-1.33,1.44-.94,0-1.56-.45-1.56-1.15,0-.82.82-1.18,1.56-1.18.25,0,.5.03.76.1-.03-.5-.07-1.29-.11-2.07-.26.02-.58.03-.82.03h-1.22v-.53ZM62.4,62.2c-.25-.08-.53-.14-.79-.14-.49,0-1.06.18-1.06.68,0,.45.47.67,1.06.67s.81-.29.8-.93c0-.06,0-.2,0-.28ZM64.03,58.59c-.18-.37-.5-.82-.88-1.18l.28-.21c.38.37.72.8.91,1.18l-.31.2ZM64.9,58.01c-.2-.39-.51-.8-.87-1.15l.28-.22c.39.38.7.76.9,1.17l-.31.2Z"/>
        <path class="cls-4" d="M69.55,58.11c0-.18-.03-1.05-.05-1.25l.82.03c0,.06-.06.14-.21.17,0,.1,0,.19.02,1.03.98-.03,2.02-.06,2.61-.06v.55c-.68-.02-1.65,0-2.6.03.02.62.03,1.2.06,1.64.08.26.1.5.1.84,0,.26-.02.55-.08.78-.21.94-.9,1.76-2.3,2.32-.1-.14-.28-.34-.41-.46,1.22-.44,1.88-1.1,2.08-1.86h0c-.17.24-.46.42-.82.42-.71,0-1.34-.58-1.34-1.4,0-.85.68-1.5,1.44-1.5.29,0,.58.1.74.25,0-.14-.02-.67-.03-1.02-.83.02-3.36.1-3.69.12l-.02-.53,1.82-.05,1.86-.06ZM69.7,60.91c0-.31,0-1.04-.82-1.04-.55,0-.94.43-.95,1.02,0,.56.42.93.89.93.57,0,.88-.44.88-.9Z"/>
        <path class="cls-4" d="M75.25,57.43c-.02.07-.09.13-.21.14-.23,1.01-.42,2.41-.42,3.3,0,.55.02,1.02.08,1.34.18-.36.57-1.12.82-1.58l.37.38c-.58,1.04-.95,1.7-.95,2.01,0,.1.02.2.06.33l-.56.11c-.21-.58-.37-1.46-.37-2.57,0-1.02.17-2.4.4-3.59l.78.13ZM76.44,59.25c.64,0,1.58-.02,2.16-.06-.05-.93-.1-2.03-.13-2.2l.82.03c0,.09-.09.16-.22.18.02.44.06,1.26.09,1.95.54-.05,1.13-.13,1.57-.25l.06.57c-.45.1-1.02.18-1.61.22,0,.05,0,.18,0,.65,0,1.73-.38,2.95-1.93,3.72-.06-.09-.3-.3-.43-.4,1.48-.72,1.79-1.77,1.79-3.27v-.66c-.54.03-1.46.06-2.17.06v-.54Z"/>
        <path class="cls-4" d="M82.44,59.94c.14-.03.44-.11.71-.19.99-.3,2.15-.57,2.89-.57,1.08,0,2.05.58,2.05,1.88,0,1.76-1.74,2.41-3.88,2.57-.03-.12-.11-.39-.16-.49,1.88-.14,3.47-.68,3.47-2.05,0-1-.71-1.43-1.56-1.42-.64,0-1.67.24-2.68.58-.18.06-.38.14-.51.18-.02.06-.07.12-.13.14l-.21-.62Z"/>
        <path class="cls-4" d="M95.84,59.63s-.04,0-.06,0c-.06,0-.12-.02-.17-.05-2.38.7-4.53,1.74-4.52,2.81,0,.77.85,1.03,2.14,1.03s2.27-.1,2.83-.18l.05.58c-.74.1-1.93.14-2.86.14-1.58,0-2.73-.37-2.74-1.54,0-.86.85-1.61,2.1-2.25-.27-.49-.37-1.42-.37-3.22l.88.07c0,.1-.09.17-.25.19,0,1.4.04,2.27.26,2.7.75-.35,1.61-.67,2.49-.96l.21.66Z"/>
      </g>
      <g>
        <path class="cls-4" d="M51.09,118.96c.45.53,1.67,2.21,1.95,2.62l-.57.74c-.25-.49-.87-1.48-1.38-2.23v6.75h-.93v-6.91c-.52,1.64-1.23,3.25-1.96,4.22-.12-.25-.35-.62-.52-.83.94-1.22,1.9-3.52,2.38-5.52h-2.06v-.88h2.16v-3.08l1.21.08c-.01.08-.09.15-.28.18v2.82h1.84v.88h-1.84v1.15ZM61.21,120.68h-3.12c.89,1.58,2.31,3.28,3.52,4.13-.23.17-.57.5-.74.74-1.1-.92-2.37-2.56-3.25-4.2v5.49h-.96v-5.37c-.96,1.76-2.35,3.39-3.68,4.34-.16-.24-.45-.56-.68-.73,1.44-.9,2.96-2.65,3.89-4.41h-3.33v-.88h3.79v-2.52h-2.03c-.25.74-.55,1.47-.9,2.06-.2-.13-.55-.29-.8-.38.77-1.26,1.26-3.18,1.5-4.61l1.16.24c-.03.1-.13.15-.29.15-.1.48-.23,1.05-.41,1.65h1.77v-2.55l1.25.08c-.01.1-.1.17-.29.2v2.27h3.18v.88h-3.18v2.52h3.6v.88Z"/>
        <path class="cls-4" d="M75.66,117.47h-4.37c.36,4.54,1.51,8.43,3.08,8.43.42,0,.61-.81.7-2.72.23.21.6.43.87.53-.19,2.46-.58,3.18-1.66,3.18-2.37,0-3.6-4.36-4.01-9.43h-7.71v-.92h7.64c-.04-.87-.07-1.75-.09-2.63l1.37.07c0,.13-.09.2-.3.22,0,.79.01,1.57.06,2.34h4.43v.92ZM66.76,120.58v4.17c1.06-.22,2.16-.46,3.24-.7l.07.83c-2.48.6-5.16,1.21-6.83,1.56-.01.11-.1.2-.2.22l-.41-1.09c.86-.15,1.95-.36,3.15-.62v-4.37h-2.72v-.9h6.51v.9h-2.82ZM72.87,113.93c.78.5,1.73,1.23,2.18,1.74l-.68.62c-.45-.52-1.37-1.3-2.15-1.82l.65-.53Z"/>
        <path class="cls-4" d="M84.48,113.9c-.04.11-.16.18-.3.21,1.42,1.91,4.05,3.78,6.33,4.73-.23.22-.46.56-.62.84-2.31-1.09-4.92-3.01-6.32-4.9-1.21,1.74-3.63,3.73-6.17,4.96-.12-.2-.36-.56-.57-.76,2.56-1.19,5.07-3.29,6.22-5.17l1.44.08ZM77.58,121.9v-.9h12.19v.9h-6.99l.17.06c-.04.1-.16.14-.35.15-.44.95-1.09,2.21-1.71,3.25,1.93-.04,4.18-.11,6.39-.18-.65-.73-1.41-1.49-2.14-2.1l.83-.43c1.37,1.13,2.83,2.68,3.52,3.74l-.87.53c-.19-.29-.42-.63-.71-.98-3.53.18-7.28.34-9.6.41-.03.13-.12.18-.23.2l-.36-1.12c.61,0,1.32-.01,2.12-.04.6-1.01,1.28-2.38,1.73-3.47h-3.98ZM80.06,118.29h7.05v.88h-7.05v-.88Z"/>
        <path class="cls-4" d="M97.38,116.86c-.01.06-.1.11-.17.14-.51,1.16-1.25,2.28-2.09,3.31.7.45,2.12,1.46,2.5,1.74l-.58.78c-.41-.39-1.34-1.13-2.05-1.68v5.74h-.97v-5.39c-.74.71-1.51,1.34-2.28,1.83-.1-.24-.36-.66-.52-.83,1.83-1.09,3.76-3.04,4.81-5.1h-4.43v-.87h2.43v-2.68l1.26.07c-.01.1-.1.17-.29.2v2.41h1.57l.17-.06.65.38ZM101.53,125.53h3.52v.92h-8.31v-.92h3.81v-6.07h-3.22v-.91h3.22v-4.59l1.29.08c-.01.1-.1.17-.31.2v4.31h3.21v.91h-3.21v6.07Z"/>
        <path class="cls-4" d="M49.94,128.77h9.43v11.79h-1.02v-.84h-7.41v.92h-1v-11.88ZM58.35,129.72h-7.41v4.02h7.41v-4.02ZM50.94,138.77h7.41v-4.1h-7.41v4.1Z"/>
        <path class="cls-4" d="M75.52,131.85h-5.3c1.25,2.49,3.43,4.8,5.8,5.9-.25.2-.57.56-.74.83-2.28-1.19-4.34-3.43-5.68-5.97v4.59h2.91v.95h-2.91v2.72h-1.02v-2.72h-2.95v-.95h2.95v-4.57c-1.38,2.54-3.46,4.73-5.65,5.97-.17-.24-.48-.59-.7-.77,2.28-1.13,4.46-3.49,5.72-5.98h-5.24v-.95h5.87v-3.03l1.31.07c-.01.1-.09.17-.29.2v2.76h5.93v.95Z"/>
        <path class="cls-4" d="M84.11,139.48h6.1v.92h-13.13v-.92h6.03v-3.75h-4.43v-.91h4.43v-3.24h-3.56c-.51,1.01-1.1,1.92-1.74,2.59-.19-.17-.57-.43-.81-.57,1.19-1.22,2.22-3.35,2.82-5.49l1.26.34c-.04.1-.14.15-.33.15-.22.69-.46,1.39-.75,2.06h3.12v-2.8l1.31.07c-.01.1-.1.17-.31.2v2.54h5.42v.92h-5.42v3.24h4.88v.91h-4.88v3.75Z"/>
        <path class="cls-4" d="M96.23,131.6h-.92l1.03.35c-.03.1-.15.14-.32.14-.35.69-.76,1.37-1.21,2.02l.44.11c-.03.08-.12.15-.29.17v6.49h-.96v-5.64c-.64.78-1.32,1.5-2.02,2.07-.17-.17-.51-.48-.73-.63,1.5-1.16,3.02-3.12,3.92-5.11l.07.03v-1.27h-3.57v-.91h3.57v-1.54l1.25.07c-.01.1-.09.17-.28.2v1.28h3.86v-1.54l1.26.07c-.01.11-.1.17-.29.2v1.28h3.54v.91h-3.54v1.37h-.97v-1.37h-3.86v1.29ZM99.28,139.06c0,.59.15.71.93.71h2.8c.73,0,.84-.38.93-2.21.23.17.62.32.9.39-.13,2.1-.42,2.72-1.77,2.72h-2.92c-1.42,0-1.83-.34-1.83-1.61v-7.28l1.25.07c-.01.1-.1.17-.29.2v3.35c1.54-.67,3.15-1.5,4.12-2.23l.83.78s-.09.06-.16.06c-.03,0-.07,0-.12-.01-1.13.74-2.98,1.58-4.68,2.26v2.82Z"/>
      </g>
      <g>
        <path class="cls-4" d="M123.35,73.72s-.06.07-.1.09c-.63,3.03-2.2,4.83-4.81,5.75-.09-.14-.26-.35-.37-.46,2.48-.81,4-2.59,4.48-5.01h-5.23v-.54h5.44l.11-.07.49.25Z"/>
        <path class="cls-4" d="M131.11,74.69s-.05.05-.08.06c-.34.78-1.03,1.63-1.63,2.13-.09-.08-.28-.22-.39-.29.57-.42,1.18-1.15,1.38-1.66h-4.63v-.46h4.87l.06-.04.42.26ZM128.54,75.84s-.06.1-.15.11c-.18,1.43-.71,2.78-2.01,3.65-.1-.08-.29-.23-.42-.3,1.31-.84,1.79-2,1.94-3.55l.64.09Z"/>
        <path class="cls-4" d="M133.71,77.82c1.76.2,3.81.66,5.07,1.15l-.24.56c-1.14-.47-3.26-.98-5.02-1.18l.19-.53ZM134.35,75.38c1.27.13,2.87.43,3.86.74l-.18.56c-.94-.32-2.55-.62-3.85-.75l.17-.54ZM134.38,72.91c1.36.14,3.1.46,4.21.86l-.23.56c-1.1-.42-2.8-.73-4.16-.88l.18-.54Z"/>
        <path class="cls-4" d="M142.15,77.12v-3.89l.76.05c0,.07-.06.13-.19.14v3.69h-.57ZM146.6,72.92c0,.08-.06.12-.19.14v2.54c0,1.68-.58,3.21-2.87,4.1-.08-.12-.28-.33-.42-.43,2.21-.82,2.71-2.19,2.71-3.67v-2.73l.77.05Z"/>
        <path class="cls-4" d="M148.92,75.76h6.68v.57h-6.37c-.05.08-.15.14-.26.15l-.05-.72Z"/>
        <path class="cls-4" d="M163.73,74.01s-.06.06-.12.08c-.74,1.14-2,2.33-3.23,3.21.62.5,1.23,1.11,1.64,1.56l-.49.42c-.84-.98-2.41-2.3-3.77-3.09l.38-.41c.57.32,1.21.74,1.78,1.18,1.08-.77,2.17-1.8,2.81-2.73h-5.87v-.54h6.29l.1-.05.47.36Z"/>
        <path class="cls-4" d="M164.92,75.76h6.68v.57h-6.37c-.05.08-.15.14-.26.15l-.05-.72Z"/>
        <path class="cls-4" d="M178.56,76.95c-.82-.44-1.93-.96-2.81-1.3v4h-.6v-6.95l.81.05c0,.09-.07.14-.21.17v2.33l.12-.17c.94.34,2.17.9,3.01,1.33l-.32.54Z"/>
      </g>
      <g>
        <path class="cls-4" d="M199.6,61.52s-.07.07-.13.1c-.36.86-.99,1.95-1.67,2.61-.12-.09-.33-.21-.48-.29.61-.54,1.1-1.34,1.37-1.98l-3.06.8v2.07c0,.78.47,1.05,1.11,1.05h1.3c.33,0,.88-.05,1.19-.09,0,.18,0,.39.02.56-.32.04-.88.06-1.18.06h-1.34c-1.01,0-1.68-.47-1.68-1.58v-1.94l-2.01.52-.14-.54,2.15-.54v-2.43l.78.03c-.02.1-.09.14-.2.16v2.09l3.38-.87.09-.06.5.26Z"/>
        <path class="cls-4" d="M206.74,60.65c-.23-.3-.54-.63-.78-.85l.28-.22c.36.3.8.81,1.02,1.15l-.15.11.06.03s-.06.07-.11.09c-.62,3.01-2.17,4.81-4.79,5.73-.1-.14-.26-.35-.37-.46,2.51-.83,4-2.58,4.46-4.99h-5.09v-.54h5.3l.1-.07.06.02ZM207.97,60.6c-.2-.34-.65-.87-.97-1.15l.29-.23c.37.3.77.8,1,1.15l-.32.23Z"/>
        <path class="cls-4" d="M209.55,60.35c.83.26,1.79.68,2.38,1.09l-.3.5c-.58-.41-1.52-.83-2.33-1.11l.26-.48ZM209.52,65.89c2.84-.88,4.73-2.47,5.68-4.69.17.14.35.24.52.33-1,2.19-2.95,3.89-5.66,4.8,0,.07-.06.15-.11.18l-.43-.62Z"/>
        <path class="cls-4" d="M223.39,60.21s-.08.06-.15.06c-.02,0-.05,0-.08,0-.62.62-1.5,1.35-2.28,1.91.06.02.16.07.19.09-.02.05-.09.1-.18.1v4.29h-.58v-4.11c-.85.6-1.95,1.25-3.05,1.78-.08-.13-.22-.33-.34-.44,2.18-1.01,4.57-2.72,5.86-4.13l.6.45Z"/>
        <path class="cls-4" d="M226.73,65.75c2.03-.57,3.65-1.54,4.63-3.29.1.14.3.3.42.4-1.08,1.84-2.86,2.91-5.27,3.54-.02.06-.06.14-.13.16l-.34-.56.1-.15v-5.89l.82.04c0,.09-.08.16-.24.18v5.57Z"/>
        <path class="cls-4" d="M238.74,60.65c-.23-.3-.54-.63-.78-.85l.28-.22c.36.3.8.81,1.02,1.15l-.15.11.06.03s-.06.07-.11.09c-.62,3.01-2.17,4.81-4.79,5.73-.1-.14-.26-.35-.37-.46,2.51-.83,4-2.58,4.46-4.99h-5.09v-.54h5.3l.1-.07.06.02ZM239.97,60.6c-.2-.34-.65-.87-.97-1.15l.29-.23c.37.3.77.8,1,1.15l-.32.23Z"/>
        <path class="cls-4" d="M241.55,60.35c.83.26,1.79.68,2.38,1.09l-.3.5c-.58-.41-1.52-.83-2.33-1.11l.26-.48ZM241.52,65.89c2.84-.88,4.73-2.47,5.68-4.69.17.14.35.24.52.33-1,2.19-2.95,3.89-5.66,4.8,0,.07-.06.15-.11.18l-.43-.62Z"/>
      </g>
      <g>
        <path class="cls-4" d="M194.26,12.17v-1.45l.53.04s-.04.07-.12.08v5.28h-.41v-1.4c-.56.24-1.11.47-1.48.62,0,.05-.03.09-.07.1l-.22-.46c.45-.15,1.11-.41,1.77-.67v-1.76h-1.59v-.4h1.59ZM196.14,15.26c0,.31.06.38.33.38h.95c.29,0,.33-.26.38-1.28.1.08.27.16.39.19-.05,1.1-.16,1.49-.74,1.49h-1.01c-.55,0-.71-.17-.71-.78v-4.53l.54.04s-.04.07-.13.08v1.95c.59-.35,1.19-.77,1.56-1.13l.35.38s-.04.02-.07.02c-.02,0-.04,0-.05,0-.43.37-1.13.79-1.78,1.15v2.06Z"/>
        <path class="cls-4" d="M198.99,11.14h4.73v4.96h-.43v-.52h-3.88v.55h-.41v-5ZM199.41,15.18h3.88v-3.64h-3.88v3.64Z"/>
      </g>
      <g>
        <path class="cls-4" d="M197.6,37.66h-2.51v.66h2.18v3.38c0,.25-.07.37-.25.43-.19.06-.54.07-1.03.06-.03-.11-.09-.26-.15-.37.2,0,.4.01.55.01.44,0,.47,0,.47-.14v-3h-3.89v3.48h-.4v-3.86h2.1v-.66h-2.46v-.38h2.46v-.67l.54.04s-.04.07-.13.08v.55h2.51v.38ZM196.47,40.99h-1.39v1.15h-.39v-1.15h-1.33v-.35h1.33v-.67h-1.23v-.34h.67c-.05-.2-.19-.5-.34-.71l.32-.09c.16.21.3.51.36.71l-.31.1h1.36c-.08-.03-.19-.07-.24-.09.13-.2.28-.53.37-.74l.44.13s-.06.05-.12.05c-.1.19-.25.46-.38.65h.82v.34h-1.33v.67h1.39v.35Z"/>
        <path class="cls-4" d="M198.59,37.14h4.73v4.96h-.43v-.52h-3.88v.55h-.41v-5ZM199,41.18h3.88v-3.64h-3.88v3.64Z"/>
      </g>
      <g>
        <path class="cls-4" d="M282.46,30H3c-1.66,0-3-1.34-3-3s1.34-3,3-3h279.46c1.66,0,3,1.34,3,3s-1.34,3-3,3Z"/>
        <g>
          <rect class="cls-2" x="3" y="24.5" width="3" height="5"/>
          <path class="cls-2" d="M273.39,29.5h-6.08v-5h6.08v5ZM261.23,29.5h-6.08v-5h6.08v5ZM249.08,29.5h-6.08v-5h6.08v5ZM236.93,29.5h-6.08v-5h6.08v5ZM224.77,29.5h-6.08v-5h6.08v5ZM212.62,29.5h-6.08v-5h6.08v5ZM200.46,29.5h-6.08v-5h6.08v5ZM188.31,29.5h-6.08v-5h6.08v5ZM176.16,29.5h-6.08v-5h6.08v5ZM164,29.5h-6.08v-5h6.08v5ZM151.85,29.5h-6.08v-5h6.08v5ZM139.69,29.5h-6.08v-5h6.08v5ZM127.54,29.5h-6.08v-5h6.08v5ZM115.39,29.5h-6.08v-5h6.08v5ZM103.23,29.5h-6.08v-5h6.08v5ZM91.08,29.5h-6.08v-5h6.08v5ZM78.92,29.5h-6.08v-5h6.08v5ZM66.77,29.5h-6.08v-5h6.08v5ZM54.62,29.5h-6.08v-5h6.08v5ZM42.46,29.5h-6.08v-5h6.08v5ZM30.31,29.5h-6.08v-5h6.08v5ZM18.15,29.5h-6.08v-5h6.08v5Z"/>
          <rect class="cls-2" x="279.46" y="24.5" width="3" height="5"/>
        </g>
      </g>
      <g>
        <rect class="cls-2" x="176.37" y="19.35" width="43.04" height="15.16"/>
        <path class="cls-4" d="M219.55,34.64h-43.32v-15.44h43.32v15.44ZM176.51,34.36h42.75v-14.87h-42.75v14.87Z"/>
      </g>
      <g>
        <path class="cls-4" d="M183.04,27.15c0,1.56-.74,2.03-1.72,2.03-.27,0-.59-.06-.76-.13l.1-.54c.15.06.37.1.62.1.7,0,1.1-.31,1.1-1.52v-4.09h.66v4.15Z"/>
        <path class="cls-4" d="M186.71,26.17c.47.15.75.61.9,1.27.19.88.33,1.42.45,1.65h-.69c-.1-.18-.23-.71-.39-1.47-.18-.85-.51-1.22-1.23-1.22h-.74v2.69h-.66v-6c.38-.08.9-.13,1.38-.13.79,0,1.31.16,1.67.5.29.26.46.68.46,1.13,0,.81-.49,1.33-1.14,1.56v.02ZM185.78,25.88c.85,0,1.39-.48,1.39-1.22,0-.9-.68-1.18-1.42-1.18-.36,0-.62.03-.75.06v2.33h.78Z"/>
        <path class="cls-4" d="M194.51,23.8h2.99v3.77h-.55v-.47h-2.44v2.66h-.56v-2.66h-2.41v.51h-.54v-3.81h2.94v-1.46l.72.05c0,.06-.06.1-.16.11v1.3ZM191.54,26.55h2.41v-2.23h-2.41v2.23ZM194.51,26.55h2.44v-2.23h-2.44v2.23Z"/>
        <path class="cls-4" d="M205.75,25.35l.3.03c-.1.41-.51,1.47-.79,1.96-.34-.08-.39-.11-.44-.14.18-.34.38-.85.54-1.33h-1.06v3.21c0,.65-.28.66-1.58.66-.02-.15-.1-.38-.18-.54.32.02.61.02.81.02.37,0,.42,0,.42-.17v-3.2h-1.44v.18h-1.52v.9h1.53v.5h-1.53v1.17l1.7-.24.02.46c-1.37.23-2.81.46-3.7.6-.02.06-.06.1-.12.11l-.17-.62c.47-.06,1.09-.14,1.76-.23v-1.24h-1.47v-.5h1.47v-.9h-1.49v-3.3h3.53v2.62h2.3c-.44-.42-1.14-.95-1.78-1.29l.35-.33c.3.15.61.34.9.54.34-.28.69-.66.95-1.03h-2.51v-.49h2.92l.1-.03.41.26s-.07.06-.11.07c-.33.48-.87,1.08-1.39,1.5.27.21.5.42.67.59l-.2.22h.8ZM199.27,23.2v.98h1.05v-.98h-1.05ZM199.27,24.61v.99h1.05v-.99h-1.05ZM201.85,24.18v-.98h-1.06v.98h1.06ZM201.85,25.6v-.99h-1.06v.99h1.06Z"/>
        <path class="cls-4" d="M207.22,27.36c-.04.74-.13,1.54-.45,1.98l-.31-.18c.29-.42.38-1.15.42-1.86l.34.06ZM209.72,26.35l.26.04v.16c-.12,2.06-.21,2.77-.42,3.01-.15.18-.31.22-.67.22-.15,0-.34,0-.52-.02-.02-.14-.06-.33-.13-.45.3.02.58.03.69.03.23,0,.35-.03.46-1.17l-.27.12c-.08-.29-.29-.74-.49-1.07l.27-.1c.2.31.38.73.48,1.01h0c.03-.34.06-.78.1-1.32h-2.09v.21h-.46v-4.34h2.98v.46h-1.22v.77h1.05v.44h-1.05v.78h1.05v.44h-1.05v.8h.91l.11-.02ZM208.24,23.14h-.84v.77h.84v-.77ZM208.24,25.12v-.78h-.84v.78h.84ZM207.4,25.56v.8h.84v-.8h-.84ZM207.56,28.95c.02-.41-.04-1.02-.12-1.5l.3-.04c.1.47.15,1.09.14,1.49l-.32.05ZM208.33,27.31c.18.41.32.94.36,1.3l-.3.08c-.03-.35-.18-.9-.34-1.31l.28-.06ZM213.69,25.95h-1.33c.25,1.54.74,2.81,1.69,3.41-.12.1-.29.3-.37.44-1.02-.74-1.54-2.11-1.8-3.85h-.82c-.02,1.22-.15,2.78-.92,3.83-.09-.09-.31-.22-.43-.28.78-1.06.85-2.57.85-3.74v-3.08h3.13v3.27ZM213.19,23.18h-2.13v2.26h2.13v-2.26Z"/>
      </g>
      <g>
        <path class="cls-4" d="M5.75,13.04h3.09v.48H2.23v-.48h3.01v-.79l.66.05c0,.06-.04.1-.15.11v.63ZM8.53,16.19v2.82c0,.31-.07.48-.3.57-.23.09-.64.09-1.29.09-.02-.15-.1-.36-.16-.51.31,0,.58.02.79.02.43,0,.47,0,.47-.17v-2.34H3.08v3.02h-.49v-3.49h5.94ZM3.51,14h4.07v1.65H3.51v-1.65ZM7.07,15.24v-.84h-3.07v.84h3.07ZM6.99,18.91h-2.44v.42h-.46v-2.13h2.89v1.7ZM6.53,17.62h-1.98v.89h1.98v-.89Z"/>
        <path class="cls-4" d="M16.15,12.81v6.12c0,.7-.28.74-1.67.74-.03-.15-.12-.39-.19-.54.27,0,.52.02.73.02.59,0,.64,0,.64-.21v-2.61h-5.22v3.36h-.5v-6.88h6.22ZM10.43,13.34v2.46h2.32v-2.46h-2.32ZM13.24,15.79h2.4v-2.46h-2.4v2.46Z"/>
        <path class="cls-4" d="M20.72,14.88h3.16v.51h-6.79v-.51h3.11v-1.12h-2.46v-.51h2.46v-1.01l.67.05c0,.06-.05.1-.15.11v.85h2.62v.51h-2.62v1.12ZM22.27,15.5c0,.06-.04.1-.15.11v.89h1.65v.52h-1.65v1.98c0,.68-.33.68-1.7.68-.02-.15-.1-.38-.18-.53.28,0,.53,0,.74,0,.61,0,.63,0,.63-.18v-1.97h-4.34v-.52h4.34v-1.04l.67.04ZM19.43,18.94c-.21-.42-.71-1.02-1.17-1.43l.43-.3c.46.41.99.98,1.2,1.4l-.46.33Z"/>
      </g>
      <g>
        <path class="cls-4" d="M267.24,17.22h-2.03c.7.78,1.82,1.52,2.8,1.87-.12.11-.27.32-.35.46-1.01-.42-2.15-1.25-2.89-2.15v2.27h-.52v-2.24c-.73.88-1.85,1.68-2.83,2.1-.08-.14-.23-.34-.35-.45.96-.37,2.06-1.09,2.75-1.87h-1.91v-2.95h2.34v-.73h-3.01v-.51h3.01v-.78l.67.04c0,.06-.04.1-.15.11v.62h3.09v.51h-3.09v.73h2.47v2.95ZM262.41,14.71v.82h1.85v-.82h-1.85ZM262.41,15.95v.84h1.85v-.84h-1.85ZM266.73,14.71h-1.96v.82h1.96v-.82ZM266.73,16.79v-.84h-1.96v.84h1.96Z"/>
        <path class="cls-4" d="M272.24,13.71h2.8v3.77h-.52v-.47h-2.28v2.66h-.52v-2.66h-2.25v.51h-.5v-3.81h2.75v-1.46l.67.05c0,.06-.05.1-.15.11v1.3ZM269.47,16.47h2.25v-2.23h-2.25v2.23ZM272.24,16.47h2.28v-2.23h-2.28v2.23Z"/>
        <path class="cls-4" d="M282.76,15.27l.28.03c-.1.41-.48,1.47-.74,1.96-.32-.08-.37-.11-.41-.14.16-.34.36-.85.51-1.33h-.99v3.21c0,.65-.26.66-1.47.66-.02-.15-.1-.38-.17-.54.3.02.57.02.75.02.34,0,.39,0,.39-.17v-3.2h-1.35v.18h-1.42v.9h1.43v.5h-1.43v1.17l1.58-.24.02.46c-1.28.23-2.63.46-3.46.6-.02.06-.06.1-.11.11l-.16-.62c.44-.06,1.02-.14,1.64-.23v-1.24h-1.38v-.5h1.38v-.9h-1.39v-3.3h3.3v2.62h2.15c-.41-.42-1.07-.95-1.66-1.29l.33-.33c.28.15.57.34.84.54.31-.28.64-.66.89-1.03h-2.35v-.49h2.73l.1-.03.38.26s-.07.06-.1.07c-.31.48-.82,1.08-1.3,1.5.25.21.47.42.63.59l-.19.22h.75ZM276.69,13.12v.98h.98v-.98h-.98ZM276.69,14.52v.99h.98v-.99h-.98ZM279.11,14.09v-.98h-.99v.98h.99ZM279.11,15.51v-.99h-.99v.99h.99Z"/>
      </g>
    </g>
  </g>
</svg>